<?xml version="1.0" encoding="utf-8"?>
<!-- Generator: Adobe Illustrator 24.1.2, SVG Export Plug-In . SVG Version: 6.00 Build 0)  -->
<svg version="1.1" id="Capa_1" xmlns="http://www.w3.org/2000/svg" xmlns:xlink="http://www.w3.org/1999/xlink" x="0px" y="0px"
	 viewBox="0 0 1075.3 1044" style="enable-background:new 0 0 1075.3 1044;" xml:space="preserve">
<style type="text/css">
	.st0{fill:#F7E9C6;}
	.st1{fill:#227D72;}
	.st2{fill:#2A9D5A;}
	.st3{fill:#23824B;}
	.st4{fill:#F4A261;}
	.st5{fill:#F7BB8C;}
	.st6{fill:#2A9D8F;}
	.st7{fill:#70B898;}
	.st8{fill:#E9C46A;}
	.st9{fill:#F0D89D;}
	.st10{fill:#558C74;}
	.st11{fill:#264653;}
	.st12{fill:#FBF3E1;}
</style>
<g>
	<path class="st0" d="M420.4,1044h654.9V369.1c-22.6-23.1-45.9-43.3-68.9-59.3C614,38.1,320.8,127.7,206.1,339.6
		C148.2,446.6,70.4,803.3,420.4,1044z"/>
	<g>
		<path class="st1" d="M442.1,500.9c50.8,51.4,103.5,101.2,161.5,144.5c58.7,43.8,122.6,80.8,192,104.7
			c39.1,13.5,79.6,22.6,120.8,26.1c4.3,0.4,8.5-1.7,9.4-6.3c0.8-3.9-1.9-9-6.3-9.4c-72.2-6.2-141.6-29.6-205.5-63.4
			c-63.3-33.5-120.7-77-174.1-124.6c-30.1-26.8-59-54.9-87.3-83.6C445.4,481.7,434.9,493.6,442.1,500.9L442.1,500.9z"/>
		<path class="st2" d="M480.1,388c-12.2,4.1,39.8-111,19.6-156.5c-20.2-45.5-138.1-66.4-138.1-66.4c28.2,31.1,47.2,145.6,33.7,144
			c-13.5-1.6-36.6-115.8-61.4-139.9c-24.8-24.1-113.9,3.9-113.9,3.9c29.5,8.6,81.1,111.4,72.3,122.4c-8.8,11-40.9-62.2-78.6-98.2
			s-167,50.4-167,50.4s26.1,23.5,23.4,46.5c-2.7,23.1-27.2,90.7,39.1,117.3c66.3,26.6,118.8-1.6,120.5,13.2
			c1.7,14.8-100.5,22.5-138.5,1.8c0,0,10.8,57.6,51,84c40.3,26.5,163.4-14.9,172.2-8c8.8,6.9-72.8,81.3-149.7,45.2
			c0,0,27.8,50.4,110,96c80.5,44.6,156.2,37.1,194.5-26.1c37.8-62.3,0.3-107.4,0.3-107.4c145.4,35,195.4-56.1,171.5-142.6
			c-16-57.9-119.2-139-119.2-139C541.5,284.6,492.3,384,480.1,388z M438,292.1c3.5-10.9,18-15,20.9-2.5c2.9,12.5-8.2,28.8-19.2,24.4
			C428.7,309.6,438,292.1,438,292.1z M349.3,570.7c-16.3,13.6-24.9,30-47.7,29.5c-17.9-0.4-21-15.5-21-15.5
			c1-13.6,16.4-21.8,33.3-29c17.4-7.4,27.2-20.7,35.7-16.5C361.5,545.1,365.6,557.1,349.3,570.7z M242.7,483.8
			c-17.4-4.6-19.8-16.3-10.4-18.2c9.3-1.8,55.9-18.8,68.1-16.5c12.5,2.4,20.9,10.1,7.5,22.1C295.9,482,260.1,488.4,242.7,483.8z
			 M394.8,505.4c-0.7,8.3-7.8,28.7-17.6,28.3c-10-0.4-16.4-8.1-13.5-15.6c2.3-6.1,4-14.3,13-15.9
			C385.8,500.5,395.5,497.1,394.8,505.4z M324.5,315.6c-9.6-7.9-7.8-51.4-7.8-51.4s-0.5-7.1,4.4-19.6c4.9-12.5,15.6,23.3,18.6,46.5
			C342.7,314.3,334.1,323.5,324.5,315.6z M415.8,399.5c-13.6-4.6,11.6-65.5,11.6-65.5c3.5-9,20.6,1.2,16.9,19.6
			C440.7,371.9,429.5,404.1,415.8,399.5z"/>
		<g>
			<g>
				<g>
					<path class="st3" d="M321,244.7c0.5-1.3,1.1-2.1,1.7-2.4c-5.5-18.9-12.6-37.2-21.3-54.8c-1.8-3.6-7.2-0.7-5.5,2.9
						c9.7,19.4,17.3,39.8,22.9,60.8C319.4,249.2,320.1,247,321,244.7z"/>
				</g>
				<path class="st1" d="M438.8,333.7c1.5-6.3,2.8-12.6,4.1-19c-1-0.1-2.1-0.3-3.1-0.7c-1.1-0.4-2-1-2.7-1.7
					c-1.2,6.2-2.5,12.3-3.9,18.4C435,331,437,332,438.8,333.7z"/>
				<path class="st1" d="M444.3,242.8c-0.3,14.7-1.4,29.3-3.3,43.8c1.9-2.2,4.3-3.7,6.7-4.3c1.5-13,2.4-26.1,2.7-39.3
					C450.6,239,444.4,238.8,444.3,242.8z"/>
				<path class="st1" d="M280.6,584.7C280.6,584.7,280.6,584.7,280.6,584.7c-7.2,2.5-14.6,4.7-22,6.6c-3.9,1-2.5,7,1.4,6
					c7.8-1.9,15.5-4.3,23.1-6.9C281.1,587.3,280.6,584.7,280.6,584.7z"/>
				<g>
					<path class="st3" d="M479.3,512.6c-11.9-9.5-24.4-19.5-37.2-29.6c49.5-16.9,90-55.7,108.7-104.8c1.4-3.7-4.5-5.4-5.9-1.7
						c-18.4,48.3-59.3,86.5-108.6,101.9c-13.7-10.9-27.6-22-41.1-32.8c8.3-14.9,15.6-30.1,22.1-45.8c-0.5-0.1-1-0.2-1.6-0.4
						c-1.6-0.6-2.7-1.9-3.3-3.9c-6.4,15.8-13.8,31.2-22.1,46.1c-6.9-5.5-13.6-10.9-20.1-16.1c-0.4-0.6-0.9-1-1.5-1.2
						c-13-10.4-25.1-20.1-35.8-28.7c3.9-26.2,4.9-53,3-79.6c-1.7,1.8-3.8,2.5-6.1,2.2c1.6,24.3,0.8,48.8-2.5,72.9
						c-5.8-4.7-11.1-9-15.8-12.8c-13.8-11.2-33.7-23.7-56.5-36.6c0.1-34-23.2-61.1-45-85c-2.7-2.9-7.2,1.3-4.5,4.2
						c19.9,21.9,41.7,46.6,43.2,77.3c-67.4-37.3-157.5-76.6-197.4-93.6c-3,1.9-4.7,3-4.7,3s0.1,0.1,0.4,0.4c0,0,0,0,0,0
						c0.1,0.1,0.3,0.3,0.4,0.4c0,0,0,0,0,0c0.9,0.9,2.5,2.4,4.3,4.5c40.9,17.5,126.9,55.4,191.8,91c-28.1,13.6-60.4,16.2-90.4,7.2
						c-3.8-1.1-5.6,4.8-1.7,5.9c32.2,9.6,67.1,6.5,97.1-8.7c0.5-0.3,0.9-0.6,1.2-1c23.3,13,43.4,25.6,57.1,36.7
						c13.8,11.2,32.8,26.4,54.2,43.6c-16.6,9.6-34,17.7-51.9,24.5c2.2,1.3,3.9,2.9,4.8,4.8c18-7,35.5-15.4,52.3-25.2
						c15.4,12.3,32,25.5,48.6,38.8c-6,11-12.9,21.5-20.6,31.4c0.4,0.8,0.6,1.8,0.5,3.2c-0.2,2.1-0.8,5.1-1.8,8.3
						c10.1-12.1,19.1-25.2,26.8-39c18.8,15,37.7,30,55.1,43.9l0,0c-2.7-4.9-5-7.7-5.3-8.1c0,0,0-0.1,0-0.1c1.8,0.4,3.5,0.8,5.3,1.2
						C476.3,511.9,477.8,512.3,479.3,512.6z"/>
				</g>
				<g>
					<path class="st3" d="M368.3,531c-4.3,4.1-8.8,8-13.4,11.8c1.6,1.4,2.9,3.1,3.8,4.9c5.5-4.5,10.8-9.2,15.9-14.2
						C372.3,533,370.1,532.2,368.3,531z"/>
				</g>
				<g>
					<path class="st3" d="M231.2,478.4c-2.3-1.9-3.6-3.8-4.1-5.7c-19.6,2.5-39.4,3.3-59.2,2.5c-4-0.2-4.1,6-0.2,6.2
						C189,482.3,210.2,481.2,231.2,478.4z"/>
				</g>
			</g>
		</g>
	</g>
	<g>
		<path class="st4" d="M540.7,74.5c0,0-73.2,327.3,0.7,529.2c25.1,68.5,58.9,114.1,92.6,144.5c70.3,63.3,182.9,28.9,205.9-62.9
			c11-44,13.6-100.7-3.9-171.6C784.3,305,540.7,74.5,540.7,74.5z"/>
		<path class="st5" d="M713.2,616c-4.4-14.2-8.7-28.4-13.1-42.6c39.2-38.7,78.4-77.4,117.7-116.1c-0.6-1.6-1.3-3.3-1.9-4.9
			c-39.1,38.6-78.2,77.2-117.3,115.7c-4.1-13.4-8.2-26.8-12.4-40.2c36.9-37.6,75.5-73.6,115.6-107.7c-0.7-1.5-1.4-3-2.1-4.5
			c-39.9,34-78.3,69.6-115.1,107c-4-12.9-7.9-25.8-11.9-38.7c36.5-34.1,73-68.2,109.5-102.2c-0.8-1.5-1.6-2.9-2.4-4.4
			C743.5,411.4,707.3,445.2,671,479c-4.2-13.5-8.3-27-12.5-40.5c31.3-34.7,64-68.1,98.1-100.2c-0.9-1.4-1.7-2.8-2.6-4.2
			c-33.7,31.7-66.1,64.7-97.1,99c-4.3-13.9-8.6-27.8-12.8-41.7c28.5-30.8,58.4-60.3,89.5-88.5c-0.9-1.3-1.8-2.7-2.7-4
			c-30.7,27.8-60.2,56.9-88.4,87.2c-3.5-11.3-7-22.7-10.4-34c24.7-28.8,50.6-56.5,77.8-83c-1-1.3-1.9-2.6-2.9-3.9
			c-26.7,26-52.3,53.2-76.6,81.5c-4.2-13.8-8.5-27.6-12.7-41.4c18.7-26.7,40.2-51.2,64.1-73.2c-1-1.3-2-2.5-3-3.8
			c-23.4,21.5-44.4,45.4-62.9,71.3c-1.4-4.7-2.9-9.4-4.3-14.1c0.2-0.8,0-1.8-0.8-2.4c-1-3.4-2.1-6.8-3.1-10.2
			c14.9-24.3,33.9-45.6,56.3-63.1c-1-1.3-2-2.5-3-3.7c-21.7,17-40.3,37.5-55.1,60.7c-3.2-10.4-6.4-20.7-9.5-31.1
			c13.7-18.8,28.7-36.6,45-53.2c-1.1-1.2-2.1-2.5-3.1-3.7c-15.7,16-30.3,33.1-43.6,51.2c-3-9.6-5.9-19.2-8.9-28.9c11-11,22-22,33-33
			c1.8-1.8,3.7-3.6,5.5-5.5c-1.1-1.2-2.1-2.4-3.2-3.6c-2.7,2.7-5.4,5.4-8.1,8c-9.6,9.6-19.2,19.2-28.8,28.8
			c-2.5-8.1-5-16.3-7.5-24.4c8.1-11.5,16.6-22.6,25.7-33.3c-1.1-1.2-2.2-2.4-3.3-3.6c-8.5,10-16.5,20.4-24.2,31.1
			c-2.9-9.5-5.8-19-8.8-28.5c5.3-7,10.8-13.6,16.7-20.1c-1.1-1.2-2.2-2.4-3.3-3.5c-5.3,5.8-10.3,11.7-15.1,17.9
			c-1.8-5.7-3.5-11.5-5.3-17.2c3.1-4.1,6.1-8.2,9.2-12.4c-1.2-1.2-2.3-2.4-3.4-3.5c-2.5,3.4-5,6.8-7.6,10.1
			c-2.6-8.6-5.3-17.1-7.9-25.7c-5.5-5.4-8.5-8.3-8.5-8.3s-0.9,4-2.4,11.3c2.9,9.5,5.9,19.1,8.8,28.6c-4.1-2.9-8.4-5.5-12.8-7.8
			c-0.3,1.6-0.6,3.3-0.9,5c5.7,3.1,11.1,6.6,16.2,10.8c2,6.7,4.1,13.3,6.1,20c-8-5.7-16.4-10.6-25.1-14.8c-0.3,1.6-0.5,3.3-0.8,4.9
			c9.2,4.5,18,9.8,26.3,16.1c0.5,0.4,1.1,0.5,1.7,0.5c3.8,12.3,7.5,24.5,11.3,36.8c-14.3-8.7-28.9-17-43.8-24.7
			c-0.2,1.7-0.5,3.4-0.7,5.1c15.9,8.3,31.5,17.1,46.7,26.6c3.4,11,6.8,22.1,10.2,33.1c-19.9-11.7-40-22.9-60.5-33.6
			c-0.2,1.7-0.4,3.4-0.7,5.1c21.4,11.2,42.4,23,63.2,35.4c4.2,13.5,8.3,27,12.5,40.5c-25.8-16.4-52.2-31.8-79.2-46.1
			c-0.2,1.7-0.4,3.5-0.6,5.2c27.9,14.9,55.2,31,81.9,48.1c2.7,8.9,5.5,17.8,8.2,26.7c-31.1-13.1-62.3-26.3-93.4-39.4
			c-0.1,1.7-0.3,3.4-0.4,5.1c31.9,13.5,63.8,26.9,95.7,40.4c5.3,17.3,10.6,34.6,15.9,51.8c-36.7-23.1-74.6-44.2-113.6-63.2
			c-0.1,1.7-0.2,3.5-0.3,5.2c39.9,19.5,78.6,41.2,116.1,65c4.9,15.8,9.7,31.6,14.6,47.5c-44.2-19.6-88.3-39.3-132.5-58.9
			c0,1.7,0,3.5-0.1,5.3c44.8,19.9,89.6,39.9,134.5,59.8c1.9,6,3.7,12.1,5.6,18.1c2.3,7.3,4.5,14.7,6.8,22
			c-48.8-20.5-97.6-41-146.4-61.5c0,1.8,0.1,3.5,0.2,5.3c49.4,20.7,98.8,41.5,148.1,62.2c3.5,11.3,7,22.6,10.4,34
			c-51.9-16.2-103.9-32.3-155.8-48.5c0.1,1.7,0.3,3.5,0.5,5.2c52.1,16.2,104.2,32.4,156.2,48.6c0.3,0.1,0.6,0.1,0.8,0.1
			c5,16.2,9.9,32.4,14.9,48.5c-55.7-19.1-111.5-38.1-167.2-57.2c0.3,1.8,0.5,3.6,0.8,5.4c56.1,19.2,112.1,38.3,168.2,57.5
			c3.7,12.1,7.5,24.2,11.2,36.4c-55.9-12.5-111.9-25-167.8-37.4c0.5,1.8,0.9,3.5,1.4,5.3c56,12.5,112,25,168.1,37.5
			c4,12.9,7.9,25.8,11.9,38.7c-55-6.1-109.6-15.3-163.5-27.5c0.7,1.8,1.5,3.7,2.2,5.5c53.7,12,108.1,21,162.8,27
			c6.4,20.9,12.9,41.9,19.3,62.8c-49.2-5.4-98.2-13-146.7-23c1.3,2,2.6,3.9,3.9,5.8c47.4,9.6,95.3,17,143.4,22.2c0.3,0,0.6,0,0.8,0
			c2.7,8.8,5.4,17.6,8.1,26.4c-39.5-2.6-79-5.1-118.4-7.7c1.7,1.8,3.5,3.5,5.3,5.2c38.2,2.5,76.5,5,114.7,7.4
			c2.7,8.7,5.4,17.4,8,26.2c3.6-1,7.2-2.1,10.8-3.4c-0.7-2.4-1.5-4.8-2.2-7.2c25.8-23.1,51.7-46.2,77.5-69.3c1-2.9,1.9-5.8,2.7-8.9
			c-27.3,24.4-54.5,48.8-81.8,73.1c-2.4-7.8-4.8-15.6-7.2-23.4c32-29.1,64-58.2,96-87.4c0.3-2.4,0.5-4.8,0.8-7.2
			c-32.8,29.8-65.5,59.6-98.3,89.5c-3.7-12.1-7.4-24.2-11.2-36.3c36.9-32.4,73.8-64.8,110.7-97.1c-0.1-2-0.2-4.1-0.3-6.1
			c-37.3,32.8-74.6,65.5-111.9,98.3c-3.2-10.5-6.5-21.1-9.7-31.6c-0.1-0.3-0.2-0.6-0.3-0.9c37.5-36.4,76.9-70.9,118-103.2
			c-0.3-1.8-0.6-3.6-0.9-5.5c-41.3,32.4-81,67-118.7,103.5c-0.4-1.4-0.8-2.7-1.3-4.1c0-0.3-0.1-0.6-0.3-0.9
			c-2.7-8.8-5.4-17.7-8.1-26.5c37.3-41.9,76.6-82,117.7-120.2c-0.5-1.7-1-3.5-1.5-5.2C789.9,534.1,750.6,574.2,713.2,616z"/>
	</g>
	<g>
		<path class="st6" d="M869.2,0c0,0-218.4,399.1-217.3,699.8c0.4,102.1,20.2,177.9,46.1,233.5c54.2,116,196.8,122.2,260.9,11.3
			c30.7-53.2,57-127,66.2-228.6C1052.3,416.5,869.2,0,869.2,0z"/>
		<path class="st7" d="M842.9,795c0.9-20.8,1.7-41.5,2.6-62.3c60.7-33.1,121.4-66.3,182.1-99.4c-0.1-2.4-0.1-4.9-0.2-7.3
			c-60.5,33.1-121.1,66.1-181.6,99.2c0.8-19.6,1.6-39.2,2.5-58.9c57.6-32.8,116.5-62.6,176.3-89.4c-0.2-2.3-0.4-4.6-0.6-6.9
			c-59.5,26.6-118.1,56.1-175.4,88.6c0.8-18.8,1.6-37.7,2.4-56.5c55.7-28.3,111.4-56.6,167.1-84.9c-0.3-2.3-0.6-4.6-0.9-6.9
			c-55.3,28.1-110.6,56.2-165.9,84.3c0.8-19.8,1.7-39.5,2.5-59.3c50.1-31.5,101.2-60.7,153.2-87.4c-0.4-2.2-0.8-4.5-1.3-6.7
			c-51.5,26.4-102.1,55.2-151.6,86.2c0.9-20.4,1.7-40.7,2.6-61.1c45.3-27.6,91.5-53,138.6-76c-0.5-2.2-1-4.4-1.5-6.6
			c-46.5,22.7-92.1,47.6-136.8,74.8c0.7-16.6,1.4-33.1,2.1-49.7c40-26.8,81.1-51.5,123-74.1c-0.6-2.2-1.1-4.4-1.7-6.5
			c-41.2,22.1-81.6,46.4-121,72.6c0.8-20.2,1.7-40.4,2.5-60.6c32.4-26.6,67-49.2,103.4-67.4c-0.6-2.1-1.2-4.3-1.8-6.4
			c-35.6,17.7-69.4,39.6-101.2,65.3c0.3-6.9,0.6-13.8,0.9-20.6c0.6-1,0.7-2.3,0.1-3.6c0.2-5,0.4-10,0.6-14.9
			c27-25.3,57.5-44.7,90.2-57.6c-0.6-2.1-1.3-4.2-1.9-6.3c-31.8,12.5-61.4,31.1-87.9,55c0.6-15.1,1.3-30.3,1.9-45.4
			c23.4-18.6,47.9-35.2,73.3-49.7c-0.7-2.1-1.4-4.2-2.1-6.3c-24.6,13.9-48.2,29.9-70.9,47.7c0.6-14.1,1.2-28.2,1.8-42.2
			c17.1-9.5,34.2-19,51.3-28.5c2.8-1.6,5.7-3.1,8.5-4.7c-0.7-2.1-1.4-4.2-2.1-6.2c-4.2,2.3-8.4,4.6-12.6,6.9
			c-14.9,8.3-29.8,16.6-44.8,24.9c0.5-11.9,1-23.8,1.5-35.7c14-11.5,28.3-22.2,43-32.3c-0.8-2.1-1.5-4.2-2.3-6.3
			c-13.8,9.4-27.3,19.4-40.4,30c0.6-13.9,1.2-27.8,1.7-41.7c8.9-6.8,18-13.1,27.3-18.9c-0.8-2.1-1.6-4.2-2.4-6.2
			c-8.4,5.2-16.6,10.8-24.6,16.8c0.4-8.4,0.7-16.8,1.1-25.2c5.2-4,10.4-8.1,15.6-12.1c-0.8-2.1-1.6-4.2-2.4-6.2
			c-4.3,3.3-8.5,6.6-12.8,9.9c0.5-12.5,1-25.1,1.6-37.6c-4-9.6-6.3-14.8-6.3-14.8s-2.6,4.8-7.4,13.8c-0.6,14-1.2,27.9-1.8,41.9
			c-3.5-5.7-7.3-11.1-11.4-16.2c-1,2-2,4-3.1,6.2c5.2,6.6,9.9,13.9,14,21.7c-0.4,9.7-0.8,19.5-1.2,29.2
			c-6.7-11.2-14.3-21.6-22.6-31.1c-1,2-2,4.1-3,6.1c8.7,10.1,16.5,21.3,23.4,33.3c0.5,0.8,1.1,1.2,1.7,1.4
			c-0.8,17.9-1.5,35.9-2.3,53.8c-12.7-18.1-26-35.7-39.8-52.7c-1,2.1-1.9,4.2-2.9,6.3c14.7,18.2,28.9,37.1,42.3,56.6
			c-0.7,16.1-1.4,32.3-2,48.4c-17.9-24.6-36.2-48.7-55.1-72.2c-0.9,2.1-1.9,4.3-2.9,6.5c19.8,24.7,39,49.9,57.6,75.7
			c-0.8,19.8-1.7,39.5-2.5,59.3c-22.7-33.5-46.5-66-71.3-97.3c-0.9,2.2-1.8,4.4-2.8,6.6C802,230,826.6,263.8,850,298.6
			c-0.5,13-1.1,26.1-1.6,39.1c-30.1-31.7-60.3-63.4-90.4-95c-0.8,2.2-1.7,4.3-2.5,6.5c30.9,32.4,61.7,64.9,92.6,97.3
			c-1.1,25.3-2.1,50.6-3.2,75.8c-32.4-47.4-67-92.7-103.6-135.6c-0.8,2.3-1.7,4.5-2.5,6.8c37.5,44.1,72.8,90.6,105.7,139.2
			c-1,23.2-1.9,46.3-2.9,69.5c-42.3-46.2-84.6-92.5-127-138.7c-0.7,2.3-1.5,4.6-2.2,6.9c42.9,46.9,85.9,93.8,128.8,140.7
			c-0.4,8.8-0.7,17.7-1.1,26.5c-0.4,10.7-0.9,21.5-1.3,32.2c-47.3-49.5-94.5-99-141.8-148.6c-0.7,2.4-1.3,4.7-2,7.1
			c47.8,50.1,95.6,100.2,143.4,150.3c-0.7,16.6-1.4,33.1-2.1,49.7c-52.6-45.2-105.2-90.4-157.9-135.6c-0.5,2.4-1.1,4.7-1.6,7.1
			c52.8,45.3,105.5,90.7,158.3,136c0.3,0.3,0.6,0.4,0.9,0.5c-1,23.7-2,47.3-3,71C777.1,656.5,721.3,605.7,665.5,555
			c-0.4,2.5-0.9,5-1.3,7.5c56.1,51.1,112.2,102.1,168.3,153.2c-0.7,17.7-1.5,35.5-2.2,53.2c-58.7-42.2-117.4-84.3-176.1-126.5
			c-0.2,2.5-0.4,5.1-0.6,7.6c58.8,42.2,117.6,84.5,176.4,126.7c-0.8,18.9-1.6,37.8-2.4,56.7c-60.2-33.3-118.7-70.5-175.3-111.4
			c0.1,2.8,0.2,5.5,0.3,8.3c56.4,40.5,114.7,77.4,174.7,110.4c-1.3,30.6-2.6,61.3-3.8,91.9c-54-29.7-106.7-62.3-157.9-97.7
			c0.7,3.2,1.4,6.3,2.1,9.4c50.2,34.4,101.8,66.2,154.5,95.1c0.3,0.2,0.6,0.3,1,0.3c-0.5,12.9-1.1,25.8-1.6,38.7
			c-44-21.5-88-43-132-64.5c1.3,3.1,2.6,6.2,3.9,9.2c42.6,20.8,85.2,41.6,127.8,62.5c-0.5,12.8-1.1,25.5-1.6,38.3
			c4.5,0.4,9.1,0.5,13.7,0.4c0.1-3.5,0.3-7.1,0.4-10.6c39-18.7,78-37.4,117-56.1c2.3-3.4,4.6-6.9,6.7-10.5
			c-41.2,19.7-82.3,39.4-123.5,59.2c0.5-11.4,1-22.8,1.4-34.2c48.5-23.8,97-47.6,145.6-71.4c1.3-3,2.6-6.1,3.8-9.2
			c-49.7,24.4-99.4,48.8-149.1,73.2c0.7-17.7,1.5-35.4,2.2-53.1c55.4-25.9,110.9-51.8,166.3-77.6c0.8-2.7,1.5-5.5,2.2-8.3
			c-56.1,26.2-112.2,52.4-168.2,78.5c0.6-15.4,1.3-30.9,1.9-46.3c0-0.4,0-0.9,0.1-1.3c57.9-30.9,117-58.4,177.2-82.3
			c0.4-2.5,0.9-5.1,1.3-7.6c-60.5,23.9-120,51.4-178.2,82.3c0.1-2,0.2-4,0.2-6c0.1-0.4,0.1-0.8,0.1-1.3c0.5-12.9,1.1-25.9,1.6-38.8
			c59.9-38.3,121.2-73.3,183.9-104.9c0.2-2.5,0.3-5,0.4-7.6C964.2,722,902.8,756.9,842.9,795z"/>
	</g>
	<g>
		<path class="st6" d="M206.4,939.9c0,0,238.6,87.6,404.6,62.1c56.4-8.7,96.6-25.9,125.2-44.8c59.6-39.5,51.2-118.9-15.4-145
			c-31.9-12.6-74.9-21-131.8-17.6C421.3,804.3,206.4,939.9,206.4,939.9z"/>
		<path class="st7" d="M647.8,888.6c-11.5,1.2-23.1,2.5-34.6,3.7c-23.3-30.8-46.7-61.6-70-92.4c-1.3,0.2-2.7,0.5-4,0.7
			c23.3,30.7,46.6,61.4,69.8,92.1c-10.9,1.2-21.8,2.3-32.7,3.5c-22.9-29.1-44.2-59.2-64-90c-1.3,0.3-2.5,0.6-3.8,0.9
			c19.6,30.7,40.8,60.6,63.5,89.6c-10.5,1.1-21,2.3-31.4,3.4c-20.3-28.4-40.5-56.9-60.8-85.3c-1.2,0.4-2.5,0.7-3.7,1.1
			c20.1,28.2,40.2,56.4,60.3,84.7c-11,1.2-22,2.4-33,3.5c-21.6-25-41.9-50.9-61-77.4c-1.2,0.4-2.4,0.8-3.6,1.3
			c18.8,26.3,38.9,51.8,60.2,76.6c-11.3,1.2-22.6,2.4-33.9,3.6c-19-22.7-36.8-46.2-53.5-70.3c-1.2,0.5-2.3,0.9-3.5,1.4
			c16.4,23.8,33.9,46.9,52.6,69.4c-9.2,1-18.4,2-27.6,3c-18.1-19.9-35.2-40.5-51.1-61.8c-1.2,0.5-2.3,1-3.5,1.5
			c15.6,20.9,32.4,41.2,50.1,60.8c-11.2,1.2-22.5,2.4-33.7,3.6c-17.4-15.7-32.7-32.9-45.8-51.5c-1.1,0.5-2.3,1-3.4,1.5
			c12.7,18.2,27.6,35.1,44.5,50.5c-3.8,0.4-7.6,0.8-11.5,1.2c-0.6-0.2-1.4-0.2-2,0.2c-2.8,0.3-5.5,0.6-8.3,0.9
			c-16.2-12.8-29.5-28-39.3-45.1c-1.1,0.5-2.2,1.1-3.3,1.6c9.5,16.5,22.3,31.4,37.7,44c-8.4,0.9-16.8,1.8-25.3,2.7
			c-12.2-11.4-23.4-23.5-33.5-36.4c-1.1,0.6-2.2,1.1-3.3,1.7c9.7,12.4,20.5,24.2,32.2,35.2c-7.8,0.8-15.6,1.7-23.5,2.5
			c-6.7-8.7-13.3-17.3-20-26c-1.1-1.4-2.2-2.9-3.3-4.3c-1.1,0.6-2.2,1.1-3.3,1.7c1.6,2.1,3.2,4.3,4.9,6.4
			c5.8,7.6,11.6,15.1,17.5,22.7c-6.6,0.7-13.2,1.4-19.9,2.1c-7.5-6.8-14.6-13.8-21.4-21.1c-1.1,0.6-2.2,1.2-3.3,1.8
			c6.3,6.8,13,13.5,19.9,19.8c-7.7,0.8-15.4,1.7-23.2,2.5c-4.5-4.3-8.7-8.8-12.7-13.5c-1.1,0.6-2.2,1.2-3.2,1.8
			c3.6,4.2,7.3,8.3,11.3,12.2c-4.7,0.5-9.3,1-14,1.5c-2.7-2.5-5.3-5.1-8-7.6c-1.1,0.6-2.2,1.3-3.2,1.9c2.2,2.1,4.4,4.2,6.6,6.3
			c-7,0.7-13.9,1.5-20.9,2.2c-5,3-7.7,4.7-7.7,4.7s2.9,1.1,8.3,2.9c7.8-0.8,15.5-1.7,23.3-2.5c-2.9,2.4-5.5,5-8,7.6
			c1.2,0.4,2.4,0.8,3.7,1.2c3.2-3.4,6.8-6.6,10.8-9.5c5.4-0.6,10.8-1.2,16.3-1.7c-5.6,4.7-10.7,9.7-15.3,15c1.2,0.4,2.4,0.8,3.6,1.1
			c4.9-5.6,10.4-10.9,16.5-15.7c0.4-0.3,0.6-0.7,0.7-1.1c10-1.1,19.9-2.1,29.9-3.2c-9,8.5-17.6,17.3-25.8,26.4
			c1.2,0.4,2.5,0.7,3.7,1.1c8.9-9.6,18.1-19,27.7-28.1c9-1,17.9-1.9,26.9-2.9c-12.1,11.9-23.9,24-35.3,36.4c1.3,0.3,2.5,0.7,3.8,1
			c12-13,24.3-25.7,37.1-38.1c11-1.2,22-2.4,33-3.5c-16.6,15.3-32.6,31.1-47.8,47.5c1.3,0.3,2.6,0.7,3.9,1
			c15.9-16.9,32.5-33.3,49.8-49.1c7.2-0.8,14.5-1.6,21.7-2.3c-15,19.3-30,38.5-45,57.8c1.3,0.3,2.5,0.6,3.8,0.9
			c15.4-19.7,30.7-39.5,46.1-59.2c14.1-1.5,28.1-3,42.2-4.5c-23.5,21.8-45.6,44.7-66.3,68.5c1.3,0.3,2.6,0.5,4,0.8
			c21.2-24.4,44-47.7,68.2-69.9c12.9-1.4,25.7-2.8,38.6-4.1c-22,27.2-44.1,54.4-66.1,81.6c1.3,0.2,2.7,0.4,4,0.7
			c22.4-27.6,44.7-55.2,67.1-82.8c4.9-0.5,9.8-1.1,14.7-1.6c6-0.6,11.9-1.3,17.9-1.9c-23.4,30.2-46.9,60.4-70.3,90.6
			c1.4,0.2,2.7,0.4,4.1,0.5c23.7-30.6,47.4-61.1,71.1-91.7c9.2-1,18.4-2,27.6-3c-20.6,32.8-41.2,65.6-61.9,98.4
			c1.3,0.1,2.7,0.2,4,0.3c20.7-32.9,41.3-65.8,62-98.7c0.1-0.2,0.2-0.4,0.2-0.5c13.2-1.4,26.3-2.8,39.5-4.2
			c-23.4,35-46.9,70-70.3,105c1.4,0,2.8,0.1,4.2,0.1c23.6-35.2,47.1-70.4,70.7-105.6c9.9-1.1,19.7-2.1,29.6-3.2
			c-18.4,35.9-36.9,71.8-55.3,107.8c1.4-0.1,2.8-0.2,4.3-0.3c18.5-36,36.9-71.9,55.4-107.9c10.5-1.1,21-2.3,31.5-3.4
			c-13.4,36-29.1,71.4-47,106.1c1.5-0.3,3-0.6,4.5-0.9c17.7-34.5,33.3-69.8,46.5-105.6c17-1.8,34.1-3.7,51.1-5.5
			c-11.9,32.3-25.6,64.1-40.9,95.3c1.7-0.6,3.4-1.3,5-1.9c14.9-30.6,28.1-61.7,39.7-93.2c0.1-0.2,0.1-0.4,0.1-0.6
			c7.2-0.8,14.3-1.5,21.5-2.3c-8.2,26.1-16.5,52.2-24.7,78.3c1.6-1,3.2-1.9,4.8-2.9c8-25.3,15.9-50.5,23.9-75.8
			c7.1-0.8,14.2-1.5,21.3-2.3c-0.2-2.5-0.5-5.1-0.9-7.6c-2,0.2-3.9,0.4-5.9,0.6c-13.6-20-27.1-40-40.7-60c-2.1-1-4.2-2-6.4-2.9
			c14.3,21.1,28.6,42.2,42.9,63.3c-6.3,0.7-12.7,1.4-19,2c-17.2-24.8-34.3-49.7-51.5-74.5c-1.8-0.5-3.6-0.9-5.4-1.4
			c17.6,25.4,35.2,50.9,52.8,76.3c-9.8,1.1-19.7,2.1-29.5,3.2c-18.9-28.5-37.8-57-56.7-85.5c-1.6-0.2-3.1-0.4-4.7-0.5
			c19.1,28.8,38.2,57.6,57.3,86.4c-8.6,0.9-17.2,1.8-25.7,2.8c-0.2,0-0.5,0.1-0.7,0.1c-21.9-29.4-41.9-59.8-60.1-91.1
			c-1.4,0-2.9-0.1-4.3-0.1c18.2,31.5,38.3,62,60.2,91.6c-1.1,0.1-2.2,0.2-3.3,0.4c-0.2,0-0.5,0-0.7,0.1c-7.2,0.8-14.4,1.5-21.6,2.3
			c-26.1-29.9-50.5-60.9-73.2-92.9c-1.4,0.1-2.8,0.3-4.2,0.4C597.3,827.6,621.7,858.7,647.8,888.6z"/>
	</g>
	<g>
		<path class="st8" d="M529.1,635.6c-21.1,11.4-32.1,19.6-49.7-5.3c-17.5-24.9-34.8-11-55.9,0.4c-21.1,11.4-47.3,8.9-85-22.5
			c-37.8-31.4-54.5-7.1-78.5,1.5c-24,8.6-30.2,9.3-61.9-8.9c-31.7-18.2-51.9,3.1-72.4,25.5C105.1,648.8,0,642.5,0,642.5
			s19.8,39.9,76.1,50.8c56.3,10.9,14.8,39,61.6,63.5c46.8,24.5,71.1-12,88.2,23.9c17.1,36,40.1,59.3,100.3,50.3
			c60.2-9,59.9,46,103.9,49.3c44,3.4,45.1-46.3,78.9-26s44.3,37.8,73.6,10.8c29.3-27,59,14.8,101.8-12.8c1.6-1,3.2-2.2,4.9-3.4
			c46.6-34.4,49.6-103.8,5.3-141.1c-10.1-8.5-20.7-13.7-31-12.7c-41.2,4.1-41.1-1.1-49.6-37.1C605.6,622,550.2,624.2,529.1,635.6z"
			/>
		<path class="st9" d="M303.4,644.6c2.2,18.4,6.8,36.4,13.8,53.5c-22.7-4.8-45.6-9.1-68.6-12.6c-8-1.2-16.1-2.4-24.2-3.4
			c-0.2-0.3-0.4-0.5-0.7-0.7c-14.4-9.6-26.8-21.5-37.1-35.4c-2.1-2.9-6.8,0.2-4.6,3.1c8.8,12,19.2,22.6,31.1,31.5
			c-51.1-6.5-102.5-10.8-153.9-15c-3.6-0.3-4.7,5.2-1.1,5.5c49.1,4.1,98.3,8.1,147.2,14.2c-12.8,8.8-24.2,19.4-34,31.6
			c-2.3,2.8,2,6.5,4.2,3.7c10.6-13.3,23.2-24.6,37.6-33.7c0.2-0.1,0.4-0.3,0.6-0.5c4,0.5,8,1,12,1.6c31.3,4.3,62.4,9.7,93.2,16.2
			c-14.1,14.6-26.9,30.3-38.4,47c-2,2.9,2.2,6.7,4.2,3.7c12-17.7,25.6-34.1,40.6-49.4c21.6,4.6,43,9.7,64.4,15.2
			c23.2,6,46.4,12.4,69.5,18.8c-15.3,12.9-29.7,26.8-43.1,41.6c-2.4,2.7,1.8,6.4,4.2,3.7c13.7-15.2,28.5-29.5,44.3-42.6
			c0.4-0.3,0.6-0.7,0.8-1c28.4,7.9,56.8,15.8,85.4,23.2c5.4,1.4,10.8,2.8,16.3,4.1c-11.4,11.1-21.3,23.5-29.6,37.1
			c-1.9,3.1,3.1,5.5,5,2.5c8.5-13.7,18.6-26.2,30.3-37.4c0.2-0.2,0.4-0.5,0.5-0.7c45.3,11.1,91,20.3,137.3,26.4
			c55.9,7.4,115.2,13.9,162.6,47.2c2.9,2.1,6.6-2.1,3.7-4.2c-41.3-29-91.4-38.4-140.4-45.1c-25.9-3.6-51.9-6.8-77.7-11.4
			c-27.7-5-55.1-11.1-82.5-17.8c-0.1,0-0.2-0.1-0.3-0.1c-5.2-18.9-8.6-38.1-10.2-57.6c-0.3-3.6-5.9-3.2-5.6,0.4
			c1.6,18.8,4.9,37.3,9.7,55.6c-35.3-8.8-70.4-18.5-105.4-28.1c-5.3-20.1-10.5-40.2-15.8-60.3c-0.9-3.5-6.2-1.6-5.3,1.9
			c5,18.9,9.9,37.8,14.9,56.7c-44.6-12.2-89.2-24.2-134.3-34c-7.6-17.7-12.7-36.2-14.9-55.4C308.5,640.6,302.9,641,303.4,644.6z"/>
		<g>
			<path class="st9" d="M148.3,717.6c1.8-1.9,3.5-3.8,5.3-5.7c1.6-1.7,2.1-4,0.5-5.9c-1.3-1.6-4.4-2.2-5.9-0.5
				c-1.8,1.9-3.5,3.8-5.3,5.7c-1.6,1.7-2.1,4-0.5,5.9C143.7,718.6,146.7,719.3,148.3,717.6L148.3,717.6z"/>
			<path class="st9" d="M132.8,700.8c2.6-0.3,5.3-0.6,7.9-1c2.3-0.3,3.8-2.8,3.4-4.9c-0.4-2.3-2.6-3.6-4.9-3.4
				c-2.6,0.3-5.3,0.6-7.9,1c-2.3,0.3-3.8,2.8-3.4,4.9C128.4,699.7,130.6,701,132.8,700.8L132.8,700.8z"/>
			<path class="st9" d="M158,739c2-2.2,4.1-4.3,6.1-6.5c1.6-1.6,2.1-4,0.5-5.9c-1.3-1.6-4.4-2.2-5.9-0.5c-2,2.2-4.1,4.3-6.1,6.5
				c-1.6,1.6-2.1,4-0.5,5.9C153.4,740.1,156.4,740.7,158,739L158,739z"/>
			<path class="st9" d="M153.4,655.7c2.2,0.4,4.4,0.9,6.6,1.3c2.2,0.4,4.4-1.8,4.5-3.9c0.1-2.5-1.5-4.1-3.9-4.5
				c-2.2-0.4-4.4-0.9-6.6-1.3c-2.2-0.4-4.4,1.8-4.5,3.9C149.5,653.7,151.1,655.2,153.4,655.7L153.4,655.7z"/>
			<path class="st9" d="M166.6,630.5c0.5,0.3,1,0.6,1.4,1c0.2,0.2,0.5,0.4,0.7,0.5c-0.2-0.2-0.2-0.2,0,0c0.4,0.4,0.7,0.7,1,1.1
				c0.1,0.1,1,1.3,0.7,0.9c1.2,1.9,3.4,3.2,5.6,2c1.8-0.9,3.3-3.6,2-5.6c-1.7-2.7-3.8-5.1-6.6-6.8c-1.9-1.1-4.6-1-5.9,1
				C164.5,626.4,164.6,629.3,166.6,630.5L166.6,630.5z"/>
			<path class="st9" d="M190.9,627.5c0.3,2.8,0.5,5.6,0.8,8.4c0.2,2.3,2.8,3.8,4.9,3.4c2.4-0.4,3.6-2.6,3.4-4.9
				c-0.3-2.8-0.5-5.6-0.8-8.4c-0.2-2.3-2.8-3.8-4.9-3.4C191.9,623.1,190.7,625.2,190.9,627.5L190.9,627.5z"/>
			<path class="st9" d="M293.7,786.2c-0.4-2.9-0.8-5.7-1.3-8.6c-0.3-2.2-2.7-3.8-4.9-3.4c-2.3,0.4-3.7,2.6-3.4,4.9
				c0.4,2.9,0.8,5.7,1.3,8.6c0.3,2.2,2.7,3.8,4.9,3.4C292.6,790.6,294,788.4,293.7,786.2L293.7,786.2z"/>
			<path class="st9" d="M267.2,779.5c1.8-2.4,3.6-4.9,5.3-7.3c3.2-4.4-3.7-9.2-6.9-4.9c-1.8,2.4-3.6,4.9-5.3,7.3
				C257.1,779,264,783.9,267.2,779.5L267.2,779.5z"/>
			<path class="st9" d="M250.6,755.5c2.9,0.3,5.8-0.2,8.4-1.4c2-0.9,3.1-3.6,2-5.6c-1.1-2-3.4-3-5.6-2c-0.2,0.1-1.6,0.6-0.7,0.3
				c-0.5,0.1-0.9,0.2-1.4,0.3c-0.2,0-0.5,0.1-0.7,0.1c0.5,0,0.5,0,0,0c-0.5,0-1,0-1.4-0.1c-2.2-0.3-4.4,1.7-4.5,3.9
				C246.6,753.4,248.2,755.2,250.6,755.5L250.6,755.5z"/>
			<path class="st9" d="M256.9,733.5c1.9,0.3,3.7,0.6,5.6,0.9c2.2,0.4,4.4-1.7,4.5-3.9c0.1-2.4-1.5-4.1-3.9-4.5
				c-1.9-0.3-3.7-0.6-5.6-0.9c-2.2-0.4-4.4,1.7-4.5,3.9C253,731.4,254.6,733.1,256.9,733.5L256.9,733.5z"/>
			<path class="st9" d="M286.5,656c1.9-0.2,3.8-0.4,5.7-0.7c2.2-0.3,3.9-2.8,3.4-4.9c-0.5-2.3-2.6-3.6-4.9-3.4
				c-1.9,0.2-3.8,0.4-5.7,0.7c-2.2,0.3-3.9,2.8-3.4,4.9C282.1,654.9,284.1,656.2,286.5,656L286.5,656z"/>
			<path class="st9" d="M289.8,626.8c1.5,2,2.9,3.9,4.4,5.9c1.3,1.8,4.3,2,5.9,0.5c1.8-1.6,1.9-4,0.5-5.9c-1.5-2-2.9-3.9-4.4-5.9
				c-1.3-1.8-4.3-2-5.9-0.5C288.5,622.5,288.4,625,289.8,626.8L289.8,626.8z"/>
			<path class="st9" d="M316.5,621.3c-1.1,2.7-2.3,5.3-3.4,8c-0.9,2.1,0.5,4.6,2.5,5.4c2.2,0.8,4.5-0.4,5.4-2.5
				c1.1-2.7,2.3-5.3,3.4-8c0.9-2.1-0.5-4.6-2.5-5.4C319.7,617.9,317.4,619.2,316.5,621.3L316.5,621.3z"/>
			<path class="st9" d="M331.6,647.9c2-2.2,4.1-4.3,6.1-6.5c1.6-1.6,2.1-4,0.5-5.9c-1.3-1.6-4.3-2.2-5.9-0.5c-2,2.2-4.1,4.3-6.1,6.5
				c-1.6,1.6-2.1,4-0.5,5.9C327,649,330,649.6,331.6,647.9L331.6,647.9z"/>
			<path class="st9" d="M433.1,799.9c0.3,3,0.7,6,1,9c0.3,2.3,2.8,3.8,4.9,3.4c2.4-0.4,3.6-2.6,3.4-4.9c-0.3-3-0.7-6-1-9
				c-0.3-2.3-2.8-3.8-4.9-3.4C434.2,795.4,432.9,797.6,433.1,799.9L433.1,799.9z"/>
			<path class="st9" d="M408,813c-0.7,4.8-1.3,9.6-2,14.4c-0.7,5.4,7.6,6,8.4,0.7c0.7-4.8,1.3-9.6,2-14.4
				C417.1,808.3,408.7,807.7,408,813L408,813z"/>
			<path class="st9" d="M389.7,810.4c2.9-2.8,5.9-5.5,8.8-8.3c3.9-3.7-1.4-10.2-5.4-6.5c-2.9,2.8-5.9,5.5-8.8,8.3
				C380.4,807.6,385.7,814.1,389.7,810.4L389.7,810.4z"/>
			<path class="st9" d="M378.4,780.7c2.1-0.3,4.2-0.6,6.3-1c2.2-0.3,3.9-2.7,3.4-4.9c-0.5-2.3-2.6-3.7-4.9-3.4
				c-2.1,0.3-4.2,0.6-6.3,1c-2.2,0.3-3.9,2.7-3.4,4.9C374.1,779.6,376.1,781,378.4,780.7L378.4,780.7z"/>
			<path class="st9" d="M396.2,756.8c3,1.1,6.1,2.2,9.1,3.3c5.1,1.8,7.9-6.1,2.9-7.9c-3-1.1-6.1-2.2-9.1-3.3
				C393.9,747.1,391.1,755,396.2,756.8L396.2,756.8z"/>
			<path class="st9" d="M424,698.1c2.7,0.1,5.4,0.2,8,0.2c2.3,0.1,4.3-1.5,4.5-3.9c0.2-2.2-1.6-4.5-3.9-4.5c-2.7-0.1-5.4-0.2-8-0.2
				c-2.3-0.1-4.3,1.5-4.5,3.9C420,695.7,421.7,698,424,698.1L424,698.1z"/>
			<path class="st9" d="M407.6,665.1c4.2,1.5,8.3,3,12.5,4.5c5.1,1.8,7.9-6.1,2.9-7.9c-4.2-1.5-8.3-3-12.5-4.5
				C405.4,655.4,402.5,663.3,407.6,665.1L407.6,665.1z"/>
			<path class="st9" d="M438.7,648.1c0.5,4.5,1.1,9,1.6,13.6c0.6,5.4,8.9,3.8,8.3-1.5c-0.5-4.5-1.1-9-1.6-13.6
				C446.3,641.2,438,642.7,438.7,648.1L438.7,648.1z"/>
			<path class="st9" d="M470.2,651.8c-1.4,3.8-2.8,7.7-4.1,11.5c-1.8,5.1,6.1,7.9,7.9,2.9c1.4-3.8,2.8-7.7,4.1-11.5
				C479.9,649.6,472,646.8,470.2,651.8L470.2,651.8z"/>
			<path class="st9" d="M487.8,671.1c-3.8,4.8-6.8,10.1-9.1,15.8c-2,5,5.9,7.9,7.9,2.9c2-5,4.7-9.5,8.1-13.8
				C498,671.7,491.1,666.9,487.8,671.1L487.8,671.1z"/>
			<path class="st9" d="M561.7,821c1.8,3.9,3.6,7.9,5.3,11.8c2.2,4.9,9.8,1.4,7.6-3.6c-1.8-3.9-3.6-7.9-5.3-11.8
				C567.1,812.5,559.5,816.1,561.7,821L561.7,821z"/>
			<path class="st9" d="M550.9,840c0.5-3.6,1-7.2,1.5-10.8c0.3-2.2-1.7-4.3-3.9-4.5c-2.4-0.2-4.2,1.6-4.5,3.9
				c-0.5,3.6-1,7.2-1.5,10.8c-0.3,2.2,1.7,4.3,3.9,4.5C548.8,844.1,550.6,842.3,550.9,840L550.9,840z"/>
			<path class="st9" d="M520.2,841c1.2-3.2,2.3-6.4,3.5-9.6c1.8-5.1-6.1-7.9-7.9-2.9c-1.2,3.2-2.3,6.4-3.5,9.6
				C510.5,843.2,518.4,846.1,520.2,841L520.2,841z"/>
			<path class="st9" d="M505.2,808.4c2.8-1.2,5.5-2.3,8.3-3.5c2-0.9,3-3.6,2-5.6c-1.1-2.1-3.4-2.9-5.6-2c-2.8,1.2-5.5,2.3-8.3,3.5
				c-2,0.9-3,3.6-2,5.6C500.7,808.5,503.1,809.3,505.2,808.4L505.2,808.4z"/>
			<path class="st9" d="M521.2,787.2c2.6,0.4,5.1,0.8,7.7,1.2c2.2,0.3,4.3-1.7,4.5-3.9c0.2-2.4-1.6-4.2-3.9-4.5
				c-2.6-0.4-5.1-0.8-7.7-1.2c-2.2-0.3-4.3,1.7-4.5,3.9C517.2,785.1,519,786.8,521.2,787.2L521.2,787.2z"/>
			<path class="st9" d="M536.6,730.5c2.7,1.9,5.5,3.8,8.2,5.7c4.5,3.1,9.3-3.8,4.9-6.9c-2.7-1.9-5.5-3.8-8.2-5.7
				C537,720.5,532.1,727.4,536.6,730.5L536.6,730.5z"/>
			<path class="st9" d="M534.5,704.8c3,1.7,5.7,3.7,8,6.2c3.7,4,10.1-1.4,6.5-5.4c-2.8-3.1-6-5.7-9.6-7.7c-2-1.1-4.5-1-5.9,1
				C532.3,700.6,532.5,703.7,534.5,704.8L534.5,704.8z"/>
			<path class="st9" d="M548.9,677.9c1.7,4.3,2.6,8.7,3,13.3c0.2,2.3,2.8,3.7,4.9,3.4c2.4-0.4,3.5-2.6,3.4-4.9
				c-0.4-5.3-1.7-10.4-3.6-15.4C554.5,669.3,546.9,672.9,548.9,677.9L548.9,677.9z"/>
			<path class="st9" d="M574.4,677.1c-1,4.7-2,9.4-3,14.1c-0.5,2.2,1.8,4.3,3.9,4.5c2.5,0.2,4.1-1.7,4.5-3.9c1-4.7,2-9.4,3-14.1
				c0.5-2.2-1.8-4.3-3.9-4.5C576.4,673,574.9,674.9,574.4,677.1L574.4,677.1z"/>
			<path class="st9" d="M590.7,700.7c-4.8,7.3-9.6,14.6-14.4,21.9c-3,4.5,3.9,9.4,6.9,4.9c4.8-7.3,9.6-14.6,14.4-21.9
				C600.6,701,593.7,696.1,590.7,700.7L590.7,700.7z"/>
			<path class="st9" d="M592.9,733.5c-1.3,3.5-2.5,7-3.8,10.5c-1.8,5.1,6.1,7.9,7.9,2.9c1.3-3.5,2.5-7,3.8-10.5
				C602.6,731.2,594.7,728.4,592.9,733.5L592.9,733.5z"/>
		</g>
	</g>
	<g>
		<path class="st7" d="M781.6,635.2c-21-5.2-33.3-6.4-29.9-33.6c3.4-27.2-16.5-28.4-37.5-33.6c-21-5.2-36.9-22.7-43.1-66.5
			c-6.2-43.8-32-37.7-53.2-46.5c-21.2-8.8-25.7-12.1-35.9-43.4c-10.1-31.3-36.5-29.4-63.7-26.8c-27.2,2.6-93.5-65.3-93.5-65.3
			s-11,38.6,20,80c31,41.4-13.7,34.9,2.6,79.7c16.4,44.7,54.7,35,44.3,69.4c-10.4,34.3-9.2,63.8,36.4,94.3s12.1,66.9,39.4,95.8
			c27.3,28.9,58.1-3.6,68.4,30.5c10.3,34.1,6.6,52,42.5,51.7c35.9-0.3,30.3,45.6,75.6,53.1c1.7,0.3,3.5,0.5,5.3,0.7
			c51.9,5.2,95.9-39.2,88.9-90.8c-1.6-11.8-5.5-21.7-12.9-27.2c-29.9-22.2-26.7-25.6-10.6-54.7C840.8,672.5,802.5,640.4,781.6,635.2
			z"/>
		<path class="st10" d="M625.7,504.5c-9.7,13.6-17.5,28.4-23.2,44c-12.2-17-24.8-33.7-38.1-50c-4.6-5.7-9.3-11.3-14-16.9
			c0-0.3,0-0.6-0.1-0.9c-3.7-15.1-4.9-30.6-3.3-46.1c0.3-3.2-4.7-4-5-0.7c-1.4,13.3-0.9,26.7,1.6,39.8
			c-30.1-35.3-61.8-69.3-93.5-103.2c-2.2-2.3-6.3,0.6-4,3c30.3,32.5,60.6,65,89.5,98.6c-13.9-1.9-27.9-1.7-41.8,0.5
			c-3.2,0.5-2.6,5.5,0.6,5c15.1-2.4,30.4-2.3,45.5,0.2c0.2,0,0.5,0,0.7,0c2.4,2.8,4.7,5.5,7,8.3c18.3,21.8,35.7,44.3,52.3,67.2
			c-18.2,1.2-36.3,3.9-54.1,8.1c-3.1,0.7-2.6,5.8,0.6,5c18.7-4.5,37.7-7.3,57-8.3c11.6,16.1,22.8,32.5,33.7,49.2
			c11.9,18.1,23.4,36.3,35,54.6c-18-0.7-36-0.1-53.9,1.6c-3.2,0.3-2.7,5.3,0.6,5c18.4-1.8,36.8-2.4,55.3-1.6c0.4,0,0.8-0.1,1.2-0.2
			c14.2,22.5,28.3,44.9,42.9,67.2c2.8,4.2,5.5,8.4,8.3,12.6c-14.3,0.5-28.5,2.8-42.2,6.8c-3.1,0.9-1.3,5.6,1.8,4.7
			c14-4,28.3-6.2,42.8-6.5c0.3,0,0.6-0.1,0.8-0.2c23.5,34.9,48.4,68.6,75.5,100.8c32.7,38.8,68.4,79,79.8,129.9
			c0.7,3.1,5.7,2.6,5-0.6c-10-44.3-37.7-80.9-66.3-115.1c-15.1-18.1-30.5-35.9-44.9-54.6c-15.4-20.1-30-40.8-44.2-61.8
			c-0.1-0.1-0.1-0.2-0.2-0.3c8-15.7,17.3-30.6,28-44.6c2-2.6-2-5.7-4-3.1c-10.3,13.5-19.4,27.8-27.2,42.9
			c-18.2-27.2-35.7-54.9-53.3-82.6c8.7-16.6,17.3-33.2,26-49.8c1.5-2.9-3.2-4.8-4.6-2c-8.1,15.6-16.3,31.2-24.4,46.8
			c-22.3-35.1-44.8-70.1-68.9-104c5.6-16.4,13.5-31.8,23.6-46C631.5,505,627.6,501.9,625.7,504.5z"/>
		<g>
			<path class="st10" d="M478.1,459.3c2.3-0.2,4.6-0.4,7-0.6c2-0.2,3.8-1.4,3.9-3.6c0.1-1.8-1.6-4.1-3.6-3.9c-2.3,0.2-4.6,0.4-7,0.6
				c-2,0.2-3.8,1.4-3.9,3.6C474.4,457.2,476,459.4,478.1,459.3L478.1,459.3z"/>
			<path class="st10" d="M478,438.7c2,1.4,3.9,2.8,5.9,4.2c1.7,1.2,4.2,0.4,5.2-1.2c1.1-1.8,0.5-4-1.2-5.2c-2-1.4-3.9-2.8-5.9-4.2
				c-1.7-1.2-4.2-0.4-5.2,1.2C475.6,435.3,476.3,437.5,478,438.7L478,438.7z"/>
			<path class="st10" d="M471.6,479.4c2.7-0.2,5.3-0.4,8-0.6c2-0.2,3.8-1.4,3.9-3.6c0.1-1.9-1.6-4.1-3.6-3.9c-2.7,0.2-5.3,0.4-8,0.6
				c-2,0.2-3.8,1.4-3.9,3.6C467.9,477.4,469.5,479.6,471.6,479.4L471.6,479.4z"/>
			<path class="st10" d="M519,421.1c1.2,1.6,2.4,3.2,3.6,4.8c1.2,1.6,4,1.5,5.3,0.2c1.6-1.6,1.4-3.6,0.2-5.3
				c-1.2-1.6-2.4-3.2-3.6-4.8c-1.2-1.6-4-1.5-5.4-0.2C517.6,417.4,517.7,419.4,519,421.1L519,421.1z"/>
			<path class="st10" d="M543.1,412.3c0.1,0.5,0.3,1,0.4,1.5c0,0.3,0.1,0.5,0.1,0.8c0-0.3,0-0.3,0,0c0,0.5,0,0.9,0,1.4
				c0,0.1-0.1,1.5-0.1,1c-0.3,1.9,0.4,4.2,2.5,4.7c1.8,0.5,4.4-0.4,4.7-2.5c0.5-2.9,0.5-5.7-0.3-8.5c-0.6-1.9-2.5-3.4-4.5-2.9
				C544.1,408.3,542.5,410.3,543.1,412.3L543.1,412.3z"/>
			<path class="st10" d="M561.1,425.1c-1.5,2-3.1,4-4.6,6.1c-1.2,1.6-0.4,4.2,1.2,5.2c1.9,1.2,4,0.4,5.2-1.2c1.5-2,3.1-4,4.6-6.1
				c1.2-1.6,0.4-4.2-1.2-5.2C564.4,422.7,562.3,423.4,561.1,425.1L561.1,425.1z"/>
			<path class="st10" d="M533.5,593c1.5-2.2,2.9-4.3,4.4-6.5c1.1-1.7,0.5-4.2-1.2-5.2c-1.8-1.1-4.1-0.5-5.2,1.2
				c-1.5,2.2-2.9,4.3-4.4,6.5c-1.1,1.7-0.5,4.2,1.2,5.2C530,595.3,532.3,594.7,533.5,593L533.5,593z"/>
			<path class="st10" d="M519.8,572.5c2.7-0.5,5.3-1.1,8-1.6c4.8-1,3.1-8.4-1.6-7.4c-2.7,0.5-5.3,1.1-8,1.6
				C513.4,566.1,515.1,573.5,519.8,572.5L519.8,572.5z"/>
			<path class="st10" d="M523.3,546.5c1.7,2,4,3.4,6.4,4.2c1.9,0.6,4.2-0.5,4.7-2.5c0.5-2-0.5-4.1-2.5-4.7c-0.2-0.1-1.4-0.6-0.6-0.2
				c-0.4-0.2-0.8-0.4-1.1-0.6c-0.2-0.1-0.4-0.2-0.5-0.4c0.3,0.3,0.3,0.3,0,0c-0.3-0.3-0.6-0.6-0.9-0.9c-1.3-1.5-4-1.6-5.4-0.2
				C522,542.7,521.9,544.9,523.3,546.5L523.3,546.5z"/>
			<path class="st10" d="M540.9,535.6c1.1,1.3,2.1,2.7,3.2,4c1.2,1.6,4,1.5,5.3,0.2c1.5-1.6,1.5-3.7,0.2-5.3c-1.1-1.3-2.1-2.7-3.2-4
				c-1.2-1.6-4-1.5-5.4-0.2C539.5,531.9,539.6,534,540.9,535.6L540.9,535.6z"/>
			<path class="st10" d="M607.5,501.9c1.4,1,2.8,2,4.2,3c1.6,1.2,4.3,0.5,5.2-1.2c1.1-1.9,0.5-4-1.2-5.2c-1.4-1-2.8-2-4.2-3
				c-1.6-1.2-4.3-0.5-5.2,1.2C605.2,498.6,605.8,500.7,607.5,501.9L607.5,501.9z"/>
			<path class="st10" d="M627.4,484.5c-0.2,2.2-0.4,4.4-0.7,6.6c-0.2,2,1.7,3.9,3.6,3.9c2.2,0,3.7-1.5,3.9-3.6
				c0.2-2.2,0.4-4.4,0.7-6.6c0.2-2-1.7-3.9-3.6-3.9C629.1,480.8,627.6,482.4,627.4,484.5L627.4,484.5z"/>
			<path class="st10" d="M648.6,496.9c-2.4,1.1-4.7,2.2-7.1,3.3c-1.9,0.9-2.5,3.4-1.6,5.1c1,1.9,3.3,2.4,5.1,1.6
				c2.4-1.1,4.7-2.2,7.1-3.3c1.9-0.9,2.5-3.4,1.6-5.1C652.7,496.6,650.4,496.1,648.6,496.9L648.6,496.9z"/>
			<path class="st10" d="M642.5,523.8c2.7-0.2,5.3-0.4,8-0.6c2-0.2,3.8-1.4,3.9-3.6c0.1-1.9-1.6-4.1-3.6-3.9c-2.7,0.2-5.3,0.4-8,0.6
				c-2,0.2-3.8,1.4-3.9,3.6C638.8,521.8,640.4,524,642.5,523.8L642.5,523.8z"/>
			<path class="st10" d="M618.1,686.6c-1.6,2.2-3.2,4.4-4.8,6.7c-1.2,1.7-0.4,4.2,1.2,5.2c1.8,1.1,4,0.4,5.2-1.2
				c1.6-2.2,3.2-4.4,4.8-6.7c1.2-1.7,0.4-4.2-1.2-5.2C621.5,684.3,619.3,685,618.1,686.6L618.1,686.6z"/>
			<path class="st10" d="M593.4,680.1c-3.4,2.8-6.7,5.6-10.1,8.4c-3.7,3.1,1.5,8.6,5.2,5.5c3.4-2.8,6.7-5.6,10.1-8.4
				C602.3,682.5,597.1,677,593.4,680.1L593.4,680.1z"/>
			<path class="st10" d="M582.8,667.3c3.6-0.1,7.2-0.1,10.9-0.2c4.9-0.1,5.2-7.6,0.3-7.6c-3.6,0.1-7.2,0.1-10.9,0.2
				C578.3,659.8,577.9,667.4,582.8,667.3L582.8,667.3z"/>
			<path class="st10" d="M593.3,640.7c1.6,1.1,3.2,2.1,4.8,3.2c1.7,1.1,4.2,0.5,5.2-1.2c1-1.8,0.5-4-1.2-5.2
				c-1.6-1.1-3.2-2.1-4.8-3.2c-1.7-1.1-4.2-0.5-5.2,1.2C591.1,637.3,591.5,639.5,593.3,640.7L593.3,640.7z"/>
			<path class="st10" d="M619.6,635.5c1.4,2.6,2.7,5.1,4.1,7.7c2.3,4.3,9,0.8,6.7-3.5c-1.4-2.6-2.7-5.1-4.1-7.7
				C624,627.7,617.3,631.2,619.6,635.5L619.6,635.5z"/>
			<path class="st10" d="M673.7,613.2c1.7,1.7,3.5,3.4,5.2,5c1.5,1.4,3.8,1.6,5.4,0.2c1.4-1.4,1.6-3.9,0.2-5.3
				c-1.7-1.7-3.5-3.4-5.2-5c-1.5-1.4-3.8-1.6-5.4-0.2C672.4,609.2,672.2,611.8,673.7,613.2L673.7,613.2z"/>
			<path class="st10" d="M682.7,581.3c1.9,3.5,3.7,7,5.6,10.5c2.3,4.3,9,0.8,6.7-3.5c-1.9-3.5-3.7-7-5.6-10.5
				C687.1,573.5,680.4,577,682.7,581.3L682.7,581.3z"/>
			<path class="st10" d="M713.7,588.8c-2.4,3.3-4.8,6.7-7.2,10c-2.8,4,3.6,7.9,6.4,4c2.4-3.3,4.8-6.7,7.2-10
				C723,588.8,716.6,584.8,713.7,588.8L713.7,588.8z"/>
			<path class="st10" d="M732.5,610.4c-3.2,1.7-6.5,3.4-9.7,5.1c-4.3,2.3-0.8,9,3.5,6.7c3.2-1.7,6.5-3.4,9.7-5.2
				C740.3,614.8,736.8,608.1,732.5,610.4L732.5,610.4z"/>
			<path class="st10" d="M732.6,633.9c-5.4,0.9-10.7,2.6-15.6,5c-4.4,2.1-0.8,8.8,3.5,6.7c4.4-2.1,8.9-3.5,13.7-4.3
				C739,640.5,737.3,633.1,732.6,633.9L732.6,633.9z"/>
			<path class="st10" d="M691.1,778.6c-1.2,3.7-2.4,7.4-3.6,11.1c-1.5,4.6,5.7,6.9,7.2,2.2c1.2-3.7,2.4-7.4,3.6-11.1
				C699.8,776.2,692.6,774,691.1,778.6L691.1,778.6z"/>
			<path class="st10" d="M672.3,784.7c2.5-2.1,5-4.2,7.5-6.3c1.6-1.3,1.5-3.9,0.2-5.4c-1.5-1.6-3.8-1.5-5.3-0.2
				c-2.5,2.1-5,4.2-7.5,6.3c-1.6,1.3-1.5,3.9-0.2,5.4C668.5,786.1,670.8,786,672.3,784.7L672.3,784.7z"/>
			<path class="st10" d="M651.3,766.8c2.7-1.4,5.4-2.9,8.1-4.3c4.3-2.3,0.8-9-3.5-6.7c-2.7,1.4-5.4,2.9-8.1,4.3
				C643.4,762.4,647,769,651.3,766.8L651.3,766.8z"/>
			<path class="st10" d="M661,736c2.6,0.9,5.1,1.8,7.7,2.7c1.9,0.7,4.2-0.6,4.7-2.5c0.5-2-0.5-4-2.5-4.7c-2.6-0.9-5.1-1.8-7.7-2.7
				c-1.9-0.7-4.2,0.6-4.7,2.5C658,733.3,659,735.3,661,736L661,736z"/>
			<path class="st10" d="M684.5,731.5c1.5,1.8,3,3.6,4.4,5.4c1.3,1.6,3.9,1.5,5.4,0.2c1.6-1.5,1.5-3.8,0.2-5.3
				c-1.5-1.8-3-3.6-4.4-5.4c-1.3-1.6-3.9-1.5-5.3-0.2C683.1,727.6,683.2,729.9,684.5,731.5L684.5,731.5z"/>
			<path class="st10" d="M729.1,703c0.7,2.9,1.4,5.8,2,8.8c1.1,4.7,8.5,3.1,7.4-1.6c-0.7-2.9-1.4-5.8-2-8.8
				C735.4,696.6,728,698.3,729.1,703L729.1,703z"/>
			<path class="st10" d="M743.3,684.6c1,2.9,1.6,5.9,1.6,9c0,4.9,7.6,5.2,7.6,0.3c0-3.7-0.6-7.4-1.8-11c-0.7-1.9-2.4-3.4-4.5-2.9
				C744.3,680.5,742.6,682.7,743.3,684.6L743.3,684.6z"/>
			<path class="st10" d="M769.2,675.4c-1.4,3.9-3.5,7.4-6.1,10.7c-1.3,1.6-0.4,4.2,1.2,5.2c1.9,1.2,3.9,0.4,5.2-1.2
				c3-3.8,5.2-7.9,6.9-12.4C778.1,673,770.9,670.8,769.2,675.4L769.2,675.4z"/>
			<path class="st10" d="M786.6,690.3c-3.5,2.5-7,5.1-10.5,7.6c-1.7,1.2-1.4,4-0.2,5.4c1.5,1.7,3.7,1.4,5.3,0.2
				c3.5-2.5,7-5.1,10.5-7.6c1.7-1.2,1.4-4,0.2-5.3C790.5,688.8,788.3,689.1,786.6,690.3L786.6,690.3z"/>
			<path class="st10" d="M783.3,715.9c-7.6,2-15.2,3.9-22.8,5.9c-4.7,1.2-3.1,8.6,1.6,7.4c7.6-2,15.2-3.9,22.8-5.9
				C789.6,722.1,788,714.7,783.3,715.9L783.3,715.9z"/>
			<path class="st10" d="M764.8,739.1c-3,1.6-5.9,3.1-8.9,4.7c-4.3,2.3-0.8,9,3.5,6.7c3-1.6,5.9-3.1,8.9-4.7
				C772.7,743.5,769.1,736.8,764.8,739.1L764.8,739.1z"/>
		</g>
	</g>
	<path class="st4" d="M982.2,776.1c-23,4.2-46.6,26.6-54.8,35c4.1-14.6,7.2-29.2,9.5-43.6c71.8-28.3,125.5-88.8,125.5-88.8
		s-14.2,11.1-58,32.3c-38.6,18.7-60,44-67.1,53.5c2-13.6,3.3-27,3.7-40.3c0.2-4.8,0.2-9.6,0.1-14.4c15.5-17.6,52.1-21.7,81.7-38.7
		c22.3-12.8,31.5-55.8,31.5-55.8s-12.1,37.5-50.7,46.6c-30.8,7.3-54.3,36.2-62.5,47.5c-0.2-15.2-1.5-30.1-3.8-44.8
		c6.2-3.5,27-15.3,46.6-29.1c23-16.3,68-62.4,68-62.4s-23.7,9-53.8,28.1c-24.3,15.5-53.7,52.7-60.9,62.1c-2-12.2-4.7-24.1-8.2-35.9
		c5.9-4.2,25.7-18.4,45.7-34.3c23.8-18.9,69.8-83,69.8-83s-17.6,14-55.7,43.6c-32.7,25.4-54.7,62.6-60.2,72.5
		c-3.2-10.6-6.9-21-11.3-31.3c1.2-8.8,1.2-34-24-77.2c-29.6-50.8-43-64.8-43-64.8s19.2,104.9,62.9,142.8c4,9.3,7.3,18.5,10.2,27.7
		c-10.1-6.5-46.9-29-90.2-42.1c-50.9-15.4-66.7-18.1-66.7-18.1s77.2,43.4,110,51.9c25.9,6.7,41.8,9.1,47.4,9.8
		c3.9,12.6,6.8,25.1,8.8,37.5c-9.9-6.2-48.6-28.7-84.2-28.4c-41.3,0.3-69-18.9-69-18.9s21.8,24.7,75.7,33
		c44.7,6.9,70.3,13.2,77.7,15.2c2.7,16.2,3.9,32.2,4,47.6c-8.1-6.2-34.1-24.1-68-28.5C827.7,677.3,782,657,782,657
		s50.7,38.8,100,50.5c35.6,8.4,49.8,7.7,54.9,6.7c0,17.6-1.5,34.6-3.9,50.8c-6.2-6.2-27.9-25.6-66.3-37.9
		c-46.2-14.8-82-26.1-82-26.1s99.5,64.9,148,66c-2.5,16-6,31.2-9.9,45.3c-4.8-6-20.8-23.3-50.8-30.4c-36.5-8.7-49.9-18.4-65.9-33.5
		c0,0,27.7,36.6,53.6,44.8c30.3,9.6,51.8,10.5,62.9,19.7c-2.7,9.4-5.5,18.3-8.5,26.6c-23.7,66.6-57.9,111.5-58.3,111.9
		c-0.7,0.9-0.5,2.2,0.4,2.9c0.1,0.1,0.2,0.2,0.4,0.2c0.8,0.4,1.9,0.2,2.5-0.6c0.3-0.5,34.9-45.8,58.8-112.9
		c3.3-9.1,6.2-18.2,8.7-27.3c9.1-3.2,42.2-14.9,64.5-21.1c26-7.3,60.9-62.6,60.9-62.6S1010.6,770.9,982.2,776.1z"/>
	<path class="st11" d="M592.2,884.5c-0.5,0.1-1,0.1-1.5,0.2c-0.1,0-0.2,0-0.2,0c-0.5,0-1,0.1-1.5,0.1c-0.1,0-0.1,0-0.2,0
		c-0.5,0-1,0.1-1.5,0.1c-0.1,0-0.2,0-0.3,0c-0.5,0-1,0-1.5,0c-0.1,0-0.2,0-0.3,0c-0.5,0-1,0-1.5,0c0,0,0,0,0,0c-0.5,0-1,0-1.5,0
		c-0.1,0-0.2,0-0.3,0c-0.5,0-1,0-1.5-0.1c-0.1,0-0.2,0-0.3,0c-0.5,0-1-0.1-1.5-0.1c0,0-0.1,0-0.1,0c-0.5,0-1-0.1-1.5-0.2
		c-0.1,0-0.1,0-0.2,0c-0.5-0.1-1-0.1-1.4-0.2c-0.1,0-0.2,0-0.2,0c-0.5-0.1-1-0.1-1.4-0.2c0,0-0.1,0-0.1,0c-0.5-0.1-0.9-0.2-1.4-0.3
		c0,0-0.1,0-0.1,0c-0.5-0.1-0.9-0.2-1.4-0.3c-0.1,0-0.1,0-0.2,0c-0.5-0.1-0.9-0.2-1.4-0.3c-0.1,0-0.1,0-0.2,0
		c-0.9-0.2-1.8-0.5-2.7-0.8c0,0-0.1,0-0.1,0c-0.4-0.1-0.9-0.3-1.3-0.4c0,0-0.1,0-0.1,0c-0.9-0.3-1.7-0.6-2.5-1c0,0,0,0-0.1,0
		c-0.4-0.2-0.8-0.3-1.2-0.5c0,0-0.1,0-0.1-0.1c-0.4-0.2-0.8-0.4-1.1-0.6c0,0,0,0,0,0c-0.8-0.4-1.5-0.8-2.2-1.2c0,0-0.1,0-0.1,0
		c-0.3-0.2-0.7-0.4-1-0.6c0,0,0,0,0,0c-0.7-0.4-1.3-0.9-1.9-1.3c0,0,0,0,0,0c-0.3-0.2-0.6-0.5-0.8-0.7c0,0,0,0,0,0
		c-0.8-0.7-1.6-1.4-2.2-2.2c0,0,0,0,0,0c-0.6-0.8-1.2-1.5-1.6-2.3c0,0,0,0,0,0c-0.1-0.3-0.3-0.5-0.4-0.8l0,0
		c-0.2-0.5-0.4-1.1-0.5-1.6c0,0,0,0,0,0c-0.1-0.3-0.1-0.5-0.1-0.8c0,0,0,0,0,0c-0.5-3.7,1.5-7.5,6.8-10.9
		c24.3-15.7,59.6-4.5,72.4,0.4c-3.4-4.7-6.8-9.4-10.1-14.2c-2.2-3.3-4.5-6.5-6.6-9.8l-3.1-4.6c-8.1-12.2-16-24.5-24.2-36.6
		c-0.1,0.2-0.3,0.4-0.4,0.5c-0.4,0.5-0.7,1-1.1,1.4c-0.2,0.3-0.4,0.5-0.6,0.8c-0.3,0.4-0.7,0.8-1,1.2c-0.2,0.3-0.5,0.5-0.7,0.8
		c-0.3,0.4-0.7,0.8-1,1.1c-0.2,0.3-0.5,0.5-0.7,0.8c-0.3,0.4-0.7,0.7-1,1.1c-0.2,0.3-0.5,0.5-0.8,0.8c-0.3,0.3-0.7,0.7-1,1
		c-0.3,0.2-0.5,0.5-0.8,0.7c-0.4,0.3-0.7,0.7-1.1,1c-0.2,0.2-0.5,0.4-0.7,0.7c-0.4,0.3-0.8,0.6-1.2,1c-0.2,0.2-0.5,0.4-0.7,0.6
		c-0.4,0.4-0.9,0.7-1.3,1c-0.2,0.1-0.4,0.3-0.5,0.4c-0.6,0.5-1.3,0.9-1.9,1.4c0,0-0.1,0.1-0.1,0.1c-0.6,0.4-1.2,0.8-1.8,1.2
		c-0.2,0.1-0.4,0.3-0.6,0.4c-0.4,0.3-0.9,0.5-1.3,0.8c-0.3,0.1-0.5,0.3-0.8,0.4c-0.4,0.2-0.8,0.5-1.2,0.7c-0.3,0.1-0.5,0.3-0.8,0.4
		c-0.4,0.2-0.8,0.4-1.2,0.6c-0.3,0.1-0.6,0.3-0.8,0.4c-0.4,0.2-0.8,0.4-1.2,0.5c-0.3,0.1-0.6,0.2-0.8,0.4c-0.4,0.2-0.8,0.3-1.2,0.5
		c-0.3,0.1-0.6,0.2-0.8,0.3c-0.4,0.2-0.8,0.3-1.3,0.5c-0.3,0.1-0.5,0.2-0.8,0.3c-0.4,0.2-0.9,0.3-1.3,0.4c-0.2,0.1-0.5,0.2-0.7,0.2
		c-0.5,0.2-1,0.3-1.6,0.5c-0.2,0-0.3,0.1-0.5,0.1c-0.7,0.2-1.4,0.4-2.1,0.5c-0.1,0-0.2,0-0.3,0.1c-0.6,0.1-1.2,0.3-1.8,0.4
		c-0.2,0-0.5,0.1-0.7,0.1c-0.5,0.1-0.9,0.2-1.4,0.3c-0.3,0-0.5,0.1-0.8,0.1c-0.4,0.1-0.8,0.1-1.3,0.2c-0.3,0-0.6,0.1-0.8,0.1
		c-0.4,0.1-0.8,0.1-1.2,0.2c-0.3,0-0.6,0.1-0.9,0.1c-0.4,0-0.8,0.1-1.2,0.1c-0.3,0-0.6,0-0.9,0.1c-0.4,0-0.8,0.1-1.2,0.1
		c-0.3,0-0.6,0-0.8,0c-0.4,0-0.8,0-1.2,0c-0.3,0-0.5,0-0.8,0c-0.4,0-0.8,0-1.2,0c-0.2,0-0.5,0-0.7,0c-0.4,0-0.9,0-1.3,0
		c-0.2,0-0.4,0-0.6,0c-0.6,0-1.2-0.1-1.9-0.1c-0.2,0-0.4,0-0.6-0.1c-0.4,0-0.8-0.1-1.2-0.1c-0.3,0-0.5-0.1-0.8-0.1
		c-0.3,0-0.7-0.1-1-0.1c-0.3,0-0.6-0.1-0.8-0.1c-0.3,0-0.6-0.1-0.9-0.1c-0.3,0-0.6-0.1-0.8-0.1c-0.3-0.1-0.6-0.1-0.9-0.2
		c-0.3-0.1-0.6-0.1-0.8-0.2c-0.3-0.1-0.6-0.1-0.8-0.2c-0.3-0.1-0.6-0.1-0.8-0.2c-0.3-0.1-0.5-0.1-0.8-0.2c-0.3-0.1-0.6-0.1-0.8-0.2
		c-0.3-0.1-0.5-0.1-0.8-0.2c-0.3-0.1-0.6-0.2-0.8-0.3c-0.2-0.1-0.5-0.2-0.7-0.2c-0.3-0.1-0.6-0.2-0.8-0.3c-0.2-0.1-0.4-0.1-0.6-0.2
		c-1.1-0.4-2.1-0.8-3-1.3c-0.2-0.1-0.3-0.1-0.5-0.2c-0.3-0.1-0.5-0.3-0.8-0.4c-0.2-0.1-0.3-0.2-0.5-0.3c-0.2-0.1-0.5-0.3-0.7-0.4
		c-0.2-0.1-0.3-0.2-0.5-0.3c-0.2-0.1-0.5-0.3-0.7-0.4c-0.1-0.1-0.3-0.2-0.4-0.3c-0.2-0.1-0.4-0.3-0.7-0.5c-0.1-0.1-0.3-0.2-0.4-0.3
		c-0.2-0.2-0.4-0.3-0.6-0.5c-0.1-0.1-0.2-0.2-0.4-0.3c-0.2-0.2-0.4-0.3-0.6-0.5c-0.1-0.1-0.2-0.2-0.3-0.3c-0.2-0.2-0.4-0.4-0.6-0.5
		c-0.1-0.1-0.1-0.2-0.2-0.2c-0.2-0.2-0.4-0.4-0.6-0.6c0,0,0,0,0,0c-0.6-0.8-1.2-1.5-1.6-2.4c0-0.1-0.1-0.1-0.1-0.2
		c-0.1-0.2-0.2-0.4-0.3-0.7c0-0.1-0.1-0.2-0.1-0.3c-0.1-0.2-0.2-0.4-0.2-0.6c0-0.1-0.1-0.2-0.1-0.3c-0.1-0.2-0.1-0.4-0.2-0.6
		c0-0.1-0.1-0.2-0.1-0.3c0-0.2-0.1-0.4-0.1-0.6c0-0.1,0-0.2,0-0.3c0-0.2,0-0.4,0-0.6c0-0.1,0-0.2,0-0.3c0-0.2,0-0.4,0-0.6
		c0-0.1,0-0.2,0-0.3c0-0.2,0.1-0.4,0.1-0.7c0-0.1,0-0.2,0.1-0.3c0.5-2.3,2-4.7,4.4-7.1c20.3-19.3,66.3-8.3,80.5-4.3
		c-5.7-8.3-11.6-16.5-17.9-24.4l0,0l-0.3-0.3c-0.2-0.2-0.4-0.5-0.6-0.7c0,0,0,0,0,0l-3.6-4.5c-8.1-9.8-16.8-19.1-26-27.8
		c-1.1,1-2.5,2.4-4.3,3.9c-0.2,0.2-0.4,0.3-0.6,0.5c-0.8,0.7-1.6,1.4-2.5,2.1c-0.2,0.2-0.5,0.4-0.7,0.6c-0.5,0.4-1,0.8-1.6,1.3
		c-0.4,0.3-0.8,0.6-1.2,0.9c-0.3,0.2-0.6,0.5-0.9,0.7c-1.1,0.8-2.2,1.6-3.3,2.4c-0.6,0.4-1.2,0.8-1.8,1.2
		c-7.5,5.1-16.7,10.1-26.8,12.9c0,0,0,0,0,0c-0.5,0.1-1,0.3-1.4,0.4c-0.1,0-0.3,0.1-0.4,0.1c-0.4,0.1-0.7,0.2-1.1,0.3
		c-0.1,0-0.3,0.1-0.4,0.1c-0.5,0.1-1,0.2-1.4,0.3c-0.1,0-0.2,0-0.3,0.1c-0.4,0.1-0.8,0.2-1.2,0.2c-0.1,0-0.3,0.1-0.4,0.1
		c-0.4,0.1-0.8,0.1-1.1,0.2c-0.1,0-0.2,0-0.3,0.1c-0.5,0.1-0.9,0.1-1.4,0.2c-0.1,0-0.2,0-0.3,0c-0.4,0-0.7,0.1-1.1,0.1
		c-0.1,0-0.3,0-0.4,0c-0.4,0-0.8,0.1-1.2,0.1c0,0-0.1,0-0.1,0c-0.4,0-0.9,0.1-1.3,0.1c-0.1,0-0.2,0-0.3,0c-0.3,0-0.7,0-1,0.1
		c-0.1,0-0.2,0-0.3,0c-0.4,0-0.8,0-1.3,0c0,0,0,0,0,0c-0.4,0-0.8,0-1.2,0c-0.1,0-0.2,0-0.3,0c-0.3,0-0.7,0-1,0c-0.1,0-0.1,0-0.2,0
		c-0.4,0-0.8,0-1.2-0.1c0,0-0.1,0-0.1,0c-0.3,0-0.7-0.1-1-0.1c-0.1,0-0.2,0-0.2,0c-0.4,0-0.7-0.1-1-0.1c0,0,0,0,0,0
		c-0.4-0.1-0.7-0.1-1.1-0.2c0,0-0.1,0-0.1,0c-0.3-0.1-0.6-0.1-0.9-0.2c-0.1,0-0.1,0-0.2,0c-0.7-0.2-1.3-0.4-1.9-0.6c0,0-0.1,0-0.1,0
		c-0.3-0.1-0.5-0.2-0.8-0.3c0,0,0,0-0.1,0c-0.6-0.2-1.1-0.5-1.6-0.8c0,0-0.1,0-0.1,0c-0.5-0.3-1-0.6-1.4-0.9c0,0,0,0,0,0
		c-0.2-0.2-0.4-0.3-0.6-0.5c0,0,0,0,0,0c-0.4-0.4-0.7-0.7-1-1.1c0,0,0,0,0,0c-0.1-0.2-0.3-0.4-0.4-0.6c0,0,0,0,0,0
		c-0.2-0.4-0.4-0.9-0.5-1.3c0,0,0,0,0-0.1c-1-3.7,1.2-8.8,8-15c16.2-14.8,52.5-11.7,66.3-9.9c-8.5-7.7-17.4-14.9-26.7-21.6l-5.5-3.9
		c-1.8-1.3-3.7-2.5-5.5-3.7c-7.4-4.8-15.1-9.3-23-13.5c-0.3,0.3-0.6,0.7-0.9,1.1c-0.2,0.2-0.4,0.4-0.6,0.7c-0.4,0.5-0.8,1-1.3,1.5
		c-1.4,1.6-3.2,3.6-5.3,5.9c-0.7,0.8-1.5,1.6-2.2,2.4c-0.4,0.4-0.8,0.8-1.2,1.3c-4.1,4.3-9.2,9.5-15.3,15.5
		c-0.3,0.3-0.6,0.6-0.9,0.8c-0.1,0.1-0.2,0.2-0.3,0.3c-0.2,0.2-0.4,0.4-0.6,0.5c-0.1,0.1-0.2,0.2-0.4,0.3c-0.2,0.2-0.4,0.3-0.6,0.5
		c-0.1,0.1-0.3,0.2-0.4,0.3c-0.2,0.2-0.4,0.3-0.6,0.5c-0.1,0.1-0.3,0.2-0.4,0.3c-0.2,0.1-0.4,0.3-0.6,0.4c-0.1,0.1-0.3,0.2-0.4,0.3
		c-0.2,0.1-0.4,0.3-0.6,0.4c-0.1,0.1-0.3,0.2-0.4,0.3c-0.2,0.1-0.4,0.3-0.6,0.4c-0.1,0.1-0.2,0.2-0.4,0.2c-0.3,0.2-0.5,0.4-0.8,0.5
		c-0.1,0-0.1,0.1-0.2,0.1c-0.3,0.2-0.7,0.4-1,0.6c-0.1,0.1-0.2,0.1-0.3,0.2c-0.2,0.1-0.5,0.3-0.7,0.4c-0.1,0.1-0.3,0.2-0.4,0.2
		c-0.2,0.1-0.4,0.2-0.6,0.4c-0.1,0.1-0.3,0.2-0.4,0.2c-0.2,0.1-0.4,0.2-0.6,0.3c-0.2,0.1-0.3,0.2-0.5,0.2c-0.2,0.1-0.4,0.2-0.6,0.3
		c-0.2,0.1-0.3,0.2-0.5,0.2c-0.2,0.1-0.4,0.2-0.6,0.3c-0.2,0.1-0.3,0.1-0.5,0.2c-0.2,0.1-0.4,0.2-0.6,0.3c-0.1,0.1-0.3,0.1-0.4,0.2
		c-0.2,0.1-0.5,0.2-0.7,0.3c-0.1,0.1-0.3,0.1-0.4,0.2c-0.3,0.1-0.7,0.3-1,0.4c-0.1,0-0.2,0.1-0.3,0.1c-0.2,0.1-0.5,0.2-0.7,0.3
		c-0.2,0.1-0.3,0.1-0.5,0.2c-0.2,0.1-0.4,0.1-0.6,0.2c-0.2,0.1-0.3,0.1-0.5,0.2c-0.2,0.1-0.4,0.1-0.6,0.2c-0.2,0.1-0.3,0.1-0.5,0.2
		c-0.2,0.1-0.4,0.1-0.5,0.2c-0.2,0.1-0.4,0.1-0.5,0.2c-0.2,0.1-0.4,0.1-0.5,0.2c-0.2,0-0.4,0.1-0.5,0.1c-0.2,0-0.3,0.1-0.5,0.1
		c-0.2,0-0.4,0.1-0.5,0.1c-0.2,0-0.3,0.1-0.5,0.1c-0.2,0-0.4,0.1-0.5,0.1c-0.2,0-0.3,0.1-0.5,0.1c-0.4,0.1-0.8,0.2-1.2,0.2
		c-0.1,0-0.3,0-0.4,0.1c-0.2,0-0.4,0.1-0.6,0.1c-0.1,0-0.3,0-0.4,0.1c-0.2,0-0.4,0.1-0.6,0.1c-0.1,0-0.3,0-0.4,0.1
		c-0.2,0-0.4,0-0.6,0.1c-0.1,0-0.3,0-0.4,0c-0.2,0-0.4,0-0.6,0.1c-0.1,0-0.3,0-0.4,0c-0.2,0-0.4,0-0.6,0c-0.1,0-0.2,0-0.4,0
		c-0.2,0-0.4,0-0.6,0c-0.1,0-0.2,0-0.3,0c-0.2,0-0.4,0-0.7,0c-0.1,0-0.1,0-0.2,0c-0.8,0-1.6,0-2.4-0.1c0,0-0.1,0-0.1,0
		c-0.2,0-0.4,0-0.7-0.1c-0.1,0-0.2,0-0.2,0c-0.2,0-0.4-0.1-0.6-0.1c-0.1,0-0.2,0-0.3,0c-0.2,0-0.4-0.1-0.6-0.1c-0.1,0-0.2,0-0.2,0
		c-0.2,0-0.4-0.1-0.6-0.1c-0.1,0-0.2,0-0.2-0.1c-0.2,0-0.4-0.1-0.6-0.1c-0.1,0-0.1,0-0.2-0.1c-0.2-0.1-0.4-0.1-0.6-0.2
		c0,0,0,0-0.1,0c-1-0.3-1.9-0.7-2.7-1.1c0,0-0.1,0-0.1,0c-0.2-0.1-0.4-0.2-0.5-0.3c0,0-0.1-0.1-0.1-0.1c-0.2-0.1-0.3-0.2-0.5-0.3
		c-0.1,0-0.1-0.1-0.1-0.1c-0.2-0.1-0.3-0.2-0.5-0.3c0,0-0.1-0.1-0.1-0.1c-0.2-0.1-0.3-0.2-0.5-0.4c0,0-0.1-0.1-0.1-0.1
		c-0.2-0.1-0.3-0.3-0.5-0.4c0,0,0,0-0.1,0c-0.7-0.6-1.3-1.3-1.8-2.1c0,0,0,0,0,0c-0.1-0.2-0.2-0.3-0.3-0.5c0,0,0-0.1-0.1-0.1
		c-0.1-0.2-0.2-0.3-0.3-0.5c0-0.1-0.1-0.1-0.1-0.2c-0.1-0.2-0.2-0.3-0.3-0.5c0-0.1-0.1-0.1-0.1-0.2c-0.1-0.2-0.2-0.4-0.2-0.5
		c0-0.1,0-0.1-0.1-0.2c-0.1-0.2-0.1-0.4-0.2-0.6c0,0,0-0.1,0-0.1c-0.7-2.1-0.9-4.6-0.6-7.4c2.8-26.6,55.9-28.3,74.4-28.2
		c-12.8-6.5-26.1-12.1-39.7-16.6c0,0-0.1,0-0.1,0l-5.1-1.7c-8.1-2.5-16.2-4.7-24.4-6.5c-0.1,0-0.1,0.1-0.2,0.1
		c-0.4,0.3-0.9,0.6-1.4,0.9c-0.1,0-0.1,0.1-0.2,0.1c-0.5,0.3-0.9,0.5-1.4,0.8c0,0-0.1,0.1-0.1,0.1c-0.5,0.3-1,0.5-1.4,0.8
		c-0.1,0-0.2,0.1-0.3,0.1c-0.5,0.2-1,0.5-1.5,0.7c-0.1,0-0.2,0.1-0.3,0.1c-0.5,0.2-1,0.5-1.5,0.7c0,0,0,0-0.1,0
		c-0.5,0.2-1,0.4-1.5,0.6c-0.1,0-0.2,0.1-0.2,0.1c-0.5,0.2-1,0.4-1.5,0.5c-0.1,0-0.2,0.1-0.3,0.1c-0.5,0.2-1,0.3-1.6,0.5
		c-0.1,0-0.2,0-0.2,0.1c-0.5,0.1-1.1,0.3-1.6,0.4c0,0-0.1,0-0.1,0c-0.5,0.1-1.1,0.3-1.7,0.4c-0.1,0-0.2,0-0.3,0.1
		c-0.5,0.1-1.1,0.2-1.6,0.3c-0.1,0-0.2,0-0.3,0.1c-0.6,0.1-1.1,0.2-1.7,0.3c0,0-0.1,0-0.1,0c-0.6,0.1-1.1,0.2-1.7,0.2
		c-0.1,0-0.2,0-0.2,0c-0.6,0.1-1.1,0.1-1.7,0.2c-0.1,0-0.2,0-0.3,0c-0.6,0-1.1,0.1-1.7,0.1c-0.1,0-0.2,0-0.3,0
		c-0.6,0-1.1,0.1-1.7,0.1c0,0-0.1,0-0.1,0c-0.6,0-1.2,0-1.8,0c-0.1,0-0.2,0-0.3,0c-0.6,0-1.1,0-1.7,0c-0.1,0-0.2,0-0.3,0
		c-0.6,0-1.2,0-1.7,0c-0.1,0-0.1,0-0.2,0c-0.6,0-1.1,0-1.7-0.1c-0.1,0-0.1,0-0.2,0c-0.6,0-1.1-0.1-1.7-0.1c-0.1,0-0.2,0-0.3,0
		c-0.6,0-1.1-0.1-1.7-0.2c-0.1,0-0.2,0-0.3,0c-0.6-0.1-1.2-0.1-1.8-0.2c0,0,0,0,0,0c-0.6-0.1-1.2-0.2-1.8-0.2c-0.1,0-0.2,0-0.3,0
		c-0.6-0.1-1.1-0.2-1.7-0.3c-0.1,0-0.2,0-0.3-0.1c-0.6-0.1-1.1-0.2-1.7-0.3c-0.1,0-0.1,0-0.2,0c-0.5-0.1-1.1-0.2-1.6-0.3
		c-0.1,0-0.1,0-0.2,0c-0.6-0.1-1.1-0.2-1.6-0.4c-0.1,0-0.2,0-0.3-0.1c-0.5-0.1-1.1-0.3-1.6-0.4c-0.1,0-0.2,0-0.3-0.1
		c-0.6-0.1-1.1-0.3-1.6-0.4c0,0,0,0,0,0c-0.5-0.1-1.1-0.3-1.6-0.5c-0.1,0-0.2,0-0.2-0.1c-0.5-0.2-1-0.3-1.5-0.5
		c-0.1,0-0.2-0.1-0.3-0.1c-0.5-0.2-1-0.3-1.5-0.5c-0.1,0-0.1,0-0.2-0.1c-0.5-0.2-1-0.3-1.5-0.5c0,0-0.1,0-0.1,0
		c-0.5-0.2-1-0.4-1.5-0.6c-0.1,0-0.2-0.1-0.2-0.1c-0.5-0.2-0.9-0.4-1.4-0.6c-0.1,0-0.2-0.1-0.2-0.1c-0.5-0.2-0.9-0.4-1.4-0.6
		c0,0,0,0,0,0c-0.5-0.2-0.9-0.4-1.4-0.6c-0.1,0-0.1-0.1-0.2-0.1c-0.4-0.2-0.9-0.4-1.3-0.6c-0.1,0-0.1-0.1-0.2-0.1
		c-0.4-0.2-0.8-0.4-1.2-0.7c0,0-0.1-0.1-0.1-0.1c-0.4-0.2-0.8-0.5-1.2-0.7c0,0,0,0,0,0c-0.4-0.2-0.8-0.5-1.2-0.7
		c-0.1,0-0.1-0.1-0.2-0.1c-0.4-0.2-0.7-0.5-1.1-0.7c-0.1,0-0.1-0.1-0.2-0.1c-0.4-0.2-0.7-0.5-1.1-0.7c0,0,0,0,0,0
		c-0.3-0.2-0.7-0.5-1-0.7c0,0-0.1,0-0.1-0.1c-0.3-0.2-0.6-0.5-0.9-0.7c0,0-0.1-0.1-0.1-0.1c-0.3-0.2-0.6-0.5-0.9-0.7
		c0,0-0.1-0.1-0.1-0.1c-0.6-0.5-1.1-1-1.6-1.6c0,0-0.1-0.1-0.1-0.1c-0.2-0.3-0.5-0.5-0.7-0.8c0,0-0.1-0.1-0.1-0.1
		c-0.2-0.3-0.4-0.5-0.6-0.8c0,0,0,0,0,0c-0.2-0.3-0.4-0.5-0.5-0.8c0,0,0,0,0-0.1c-0.2-0.3-0.3-0.5-0.5-0.8c0,0,0-0.1-0.1-0.1
		c-0.1-0.3-0.3-0.5-0.4-0.8c0,0,0-0.1,0-0.1c-0.2-0.5-0.4-1.1-0.5-1.6c0,0,0-0.1,0-0.1c-0.1-0.3-0.1-0.5-0.1-0.8c0,0,0-0.1,0-0.1
		c0-0.3,0-0.5,0-0.8c0,0,0,0,0-0.1c0-0.3,0-0.5,0.1-0.8c0,0,0,0,0,0c0-0.3,0.1-0.5,0.2-0.8c0,0,0-0.1,0-0.1c0.1-0.3,0.1-0.5,0.2-0.8
		c0,0,0-0.1,0-0.1c0.1-0.3,0.2-0.5,0.4-0.8l0,0l0,0c1.5-2.9,5-5.5,11.1-7.7c35-12.9,63.6,12,72.9,21.5c8.5,1.8,16.9,4,25.1,6.6
		l4.6,1.5c14.1,4.6,27.9,10.3,41.1,16.9c-11.8-13.6-39.1-49-26.3-70.5c3.4-5.7,7.2-8.4,11.1-8.9c0,0,0,0,0.1,0
		c1.1-0.1,2.3-0.1,3.4,0.2c0,0,0,0,0,0c1.1,0.2,2.3,0.6,3.4,1.2c0,0,0,0,0,0c1.1,0.6,2.3,1.3,3.4,2.2c0,0,0,0,0.1,0
		c0.2,0.2,0.4,0.3,0.6,0.5l0,0c0.9,0.7,1.7,1.5,2.6,2.4c0,0,0.1,0.1,0.1,0.1c0.2,0.2,0.4,0.4,0.6,0.6c0,0,0.1,0.1,0.1,0.1
		c0.6,0.7,1.2,1.4,1.7,2.1c0,0,0,0.1,0.1,0.1c0.2,0.2,0.3,0.4,0.5,0.7c0.1,0.1,0.1,0.1,0.2,0.2c0.2,0.2,0.3,0.4,0.5,0.7
		c0.1,0.1,0.1,0.1,0.2,0.2c0.5,0.7,1,1.5,1.5,2.3c0.1,0.1,0.1,0.2,0.2,0.3c0.1,0.2,0.3,0.4,0.4,0.7c0.1,0.1,0.1,0.2,0.2,0.4
		c0.1,0.2,0.3,0.4,0.4,0.7c0.1,0.1,0.1,0.3,0.2,0.4c0.1,0.2,0.2,0.4,0.4,0.7c0.1,0.1,0.1,0.2,0.2,0.3c0.2,0.4,0.4,0.8,0.7,1.3
		c0.1,0.2,0.2,0.3,0.2,0.5c0.1,0.2,0.2,0.4,0.3,0.6c0.1,0.2,0.2,0.4,0.3,0.5c0.1,0.2,0.2,0.4,0.3,0.6c0.1,0.2,0.2,0.4,0.3,0.6
		c0.1,0.2,0.2,0.4,0.3,0.6c0.1,0.3,0.2,0.6,0.4,0.9c0.1,0.2,0.2,0.5,0.3,0.7c0.1,0.2,0.2,0.5,0.3,0.7c0.1,0.2,0.1,0.4,0.2,0.6
		c0.1,0.2,0.2,0.5,0.3,0.7c0.1,0.2,0.1,0.4,0.2,0.6c0.1,0.2,0.2,0.5,0.3,0.7c0.1,0.2,0.1,0.3,0.2,0.5c0.1,0.4,0.3,0.8,0.4,1.2
		c0,0.1,0.1,0.2,0.1,0.3c0.1,0.3,0.2,0.6,0.3,1c0,0.2,0.1,0.3,0.1,0.5c0.1,0.3,0.2,0.5,0.2,0.8c0,0.2,0.1,0.3,0.1,0.5
		c0.1,0.3,0.2,0.6,0.2,0.9c0,0.1,0.1,0.3,0.1,0.4c0.1,0.4,0.2,0.9,0.3,1.3c0,0.1,0,0.1,0,0.2c0.1,0.4,0.2,0.7,0.2,1.1
		c0,0.1,0.1,0.3,0.1,0.4c0.1,0.3,0.1,0.6,0.2,0.9c0,0.2,0.1,0.3,0.1,0.5c0.1,0.3,0.1,0.6,0.2,0.9c0,0.1,0,0.3,0.1,0.4
		c0.1,0.4,0.1,0.9,0.2,1.3c0,0,0,0.1,0,0.1c0.1,0.4,0.1,0.8,0.2,1.2c0,0.1,0,0.3,0,0.4c0,0.3,0.1,0.6,0.1,0.9c0,0.2,0,0.3,0,0.5
		c0,0.3,0.1,0.6,0.1,0.9c0,0.1,0,0.3,0,0.4c0,0.4,0.1,0.9,0.1,1.3c0,0,0,0,0,0c0,0.4,0,0.8,0,1.3c0,0.1,0,0.3,0,0.4
		c0,0.3,0,0.6,0,0.9c0,0.1,0,0.3,0,0.4c0,0.3,0,0.6,0,0.9c0,0.1,0,0.3,0,0.4c0,0.4,0,0.8-0.1,1.3c-0.5,6.4-1.1,11.6-1.9,15.9
		c-0.2,1.2-0.4,2.4-0.7,3.4c-0.2,1.1-0.5,2.1-0.7,3c-0.3,1.4-0.7,2.6-1.1,3.7c-0.1,0.4-0.2,0.7-0.3,1c-0.5,1.3-0.9,2.4-1.3,3.3
		c-0.1,0.2-0.2,0.4-0.3,0.6c-0.2,0.3-0.3,0.6-0.5,0.9c7.9,4.2,15.7,8.8,23.2,13.7l5.8,3.9c10.7,7.3,20.8,15.3,30.5,23.9
		c-7.3-16.9-26.3-66.4-2.1-76.5c1-0.4,2-0.8,3-1.1c0,0,0,0,0,0c0.2-0.1,0.5-0.1,0.7-0.2c0,0,0,0,0,0c0.2-0.1,0.5-0.1,0.7-0.2
		c0,0,0,0,0.1,0c0.2-0.1,0.4-0.1,0.6-0.1c0,0,0,0,0.1,0c0.2,0,0.4-0.1,0.6-0.1c0,0,0,0,0.1,0c0.2,0,0.4-0.1,0.6-0.1c0,0,0,0,0.1,0
		c0.2,0,0.4,0,0.6-0.1c0,0,0.1,0,0.1,0c0.2,0,0.4,0,0.6,0c0,0,0.1,0,0.1,0c0.2,0,0.4,0,0.5,0c0,0,0.1,0,0.1,0c0.2,0,0.4,0,0.5,0
		c0,0,0.1,0,0.1,0c0.2,0,0.3,0,0.5,0c0,0,0.1,0,0.1,0c0.2,0,0.3,0,0.5,0c0,0,0.1,0,0.1,0c0.2,0,0.3,0,0.5,0.1c0,0,0,0,0.1,0
		c0.2,0,0.3,0.1,0.5,0.1c0,0,0,0,0.1,0c0.2,0,0.3,0.1,0.5,0.1c0,0,0,0,0.1,0c0.2,0,0.3,0.1,0.5,0.1c0,0,0,0,0.1,0
		c0.2,0,0.3,0.1,0.4,0.2c0,0,0,0,0.1,0c0.1,0.1,0.3,0.1,0.4,0.2c0,0,0,0,0.1,0c0.1,0.1,0.3,0.1,0.4,0.2c0,0,0,0,0,0
		c0.1,0.1,0.3,0.1,0.4,0.2c0,0,0,0,0,0c0.1,0.1,0.3,0.2,0.4,0.2c0,0,0,0,0,0c0.1,0.1,0.3,0.2,0.4,0.3c0,0,0,0,0,0
		c0.1,0.1,0.3,0.2,0.4,0.3c0,0,0,0,0,0c0.1,0.1,0.3,0.2,0.4,0.3l0,0c3.1,2.6,5,7,5.9,12.4l0,0c0,0.2,0.1,0.5,0.1,0.7c0,0,0,0,0,0
		c0,0.2,0.1,0.5,0.1,0.7c0,0,0,0,0,0.1c0,0.2,0.1,0.5,0.1,0.7c0,0,0,0,0,0.1c0,0.2,0,0.5,0.1,0.7c0,0,0,0.1,0,0.1
		c0,0.2,0,0.4,0.1,0.7c0,0,0,0.1,0,0.1c0,0.2,0,0.4,0.1,0.7c0,0,0,0.1,0,0.1c0,0.2,0,0.4,0,0.7c0,0,0,0.1,0,0.1c0,0.2,0,0.4,0,0.7
		c0,0,0,0.1,0,0.1c0,0.2,0,0.4,0,0.7c0,0.1,0,0.1,0,0.2c0,0.2,0,0.4,0,0.7c0,0.1,0,0.1,0,0.2c0,0.2,0,0.4,0,0.7c0,0.1,0,0.1,0,0.2
		c0,0.2,0,0.4,0,0.7c0,0.1,0,0.1,0,0.2c0,0.2,0,0.4,0,0.7c0,0.1,0,0.1,0,0.2c0,0.2,0,0.4,0,0.7c0,0.1,0,0.1,0,0.2c0,0.2,0,0.4,0,0.7
		c0,0.1,0,0.1,0,0.2c0,0.2,0,0.4,0,0.7c0,0.1,0,0.1,0,0.2c0,0.2,0,0.4,0,0.7c0,0.1,0,0.1,0,0.2c0,0.2,0,0.4,0,0.7c0,0.1,0,0.1,0,0.2
		c0,0.2,0,0.5-0.1,0.7c0,0.1,0,0.1,0,0.2c0,0.2,0,0.5-0.1,0.7c0,0.1,0,0.1,0,0.2c0,0.2,0,0.5-0.1,0.7c0,0.1,0,0.1,0,0.2
		c0,0.2,0,0.5-0.1,0.7c0,0.1,0,0.1,0,0.2c0,0.2-0.1,0.5-0.1,0.7c0,0.1,0,0.1,0,0.2c0,0.2-0.1,0.5-0.1,0.7c0,0.1,0,0.1,0,0.2
		c0,0.2-0.1,0.5-0.1,0.7c0,0.1,0,0.1,0,0.2c0,0.2-0.1,0.5-0.1,0.7c0,0.1,0,0.1,0,0.2c0,0.2-0.1,0.5-0.1,0.7c0,0.1,0,0.1,0,0.2
		c0,0.2-0.1,0.5-0.1,0.7c0,0.1,0,0.1,0,0.2c0,0.3-0.1,0.5-0.1,0.8c0,0,0,0.1,0,0.1c0,0.3-0.1,0.5-0.1,0.8c0,0,0,0.1,0,0.1
		c-0.1,0.3-0.1,0.6-0.2,0.9c0,0,0,0,0,0c-0.4,2.2-0.9,4.4-1.4,6.6c0,0,0,0,0,0c-0.1,0.3-0.1,0.5-0.2,0.8c0,0.1,0,0.1,0,0.2
		c-0.1,0.2-0.1,0.5-0.2,0.7c0,0.1,0,0.2-0.1,0.3c-0.1,0.2-0.1,0.4-0.2,0.7c0,0.1-0.1,0.2-0.1,0.3c-0.1,0.2-0.1,0.4-0.2,0.6
		c0,0.1-0.1,0.2-0.1,0.3c-0.1,0.2-0.1,0.4-0.2,0.6c0,0.1-0.1,0.2-0.1,0.4c-0.1,0.2-0.1,0.4-0.2,0.6c0,0.1-0.1,0.3-0.1,0.4
		c-0.1,0.2-0.1,0.4-0.2,0.6c0,0.1-0.1,0.3-0.1,0.4c-0.1,0.2-0.1,0.4-0.2,0.5c0,0.1-0.1,0.3-0.1,0.4c-0.1,0.2-0.1,0.4-0.2,0.5
		c0,0.1-0.1,0.3-0.1,0.4c-0.1,0.2-0.1,0.3-0.2,0.5c0,0.1-0.1,0.3-0.1,0.4c-0.1,0.2-0.1,0.3-0.2,0.5c0,0.1-0.1,0.3-0.1,0.4
		c-0.1,0.2-0.1,0.3-0.2,0.5c0,0.1-0.1,0.3-0.1,0.4c-0.1,0.2-0.1,0.3-0.2,0.5c0,0.1-0.1,0.3-0.2,0.4c-0.1,0.2-0.1,0.3-0.2,0.5
		c-0.1,0.2-0.1,0.3-0.2,0.4c-0.1,0.2-0.1,0.3-0.2,0.5c-0.1,0.1-0.1,0.3-0.2,0.4c-0.1,0.2-0.1,0.3-0.2,0.5c-0.1,0.1-0.1,0.3-0.2,0.4
		c-0.1,0.2-0.1,0.3-0.2,0.5c-0.1,0.1-0.1,0.3-0.2,0.4c-0.1,0.2-0.1,0.3-0.2,0.5c-0.1,0.1-0.1,0.3-0.2,0.4c-0.1,0.1-0.1,0.3-0.2,0.4
		c-0.1,0.1-0.1,0.3-0.2,0.4c-0.1,0.1-0.1,0.3-0.2,0.4c-0.1,0.1-0.1,0.3-0.2,0.4c-0.1,0.1-0.1,0.3-0.2,0.4c-0.1,0.1-0.1,0.3-0.2,0.4
		c-0.1,0.1-0.1,0.3-0.2,0.4c-0.1,0.1-0.1,0.3-0.2,0.4c-0.1,0.1-0.1,0.3-0.2,0.4c-0.1,0.1-0.1,0.3-0.2,0.4c-0.1,0.1-0.1,0.3-0.2,0.4
		c-0.1,0.1-0.1,0.3-0.2,0.4c-0.1,0.1-0.1,0.3-0.2,0.4c-0.1,0.1-0.1,0.3-0.2,0.4c-0.1,0.1-0.1,0.3-0.2,0.4c-0.1,0.1-0.1,0.3-0.2,0.4
		c-0.1,0.1-0.1,0.3-0.2,0.4c-0.1,0.1-0.1,0.3-0.2,0.4c-0.1,0.1-0.1,0.3-0.2,0.4c-0.1,0.1-0.1,0.3-0.2,0.4c-0.1,0.1-0.1,0.3-0.2,0.4
		c-0.1,0.1-0.1,0.3-0.2,0.4c-0.1,0.1-0.1,0.3-0.2,0.4c-0.1,0.1-0.1,0.3-0.2,0.4c-0.1,0.1-0.1,0.3-0.2,0.4c-0.1,0.1-0.1,0.3-0.2,0.4
		c-0.1,0.1-0.1,0.3-0.2,0.4c-0.1,0.1-0.1,0.3-0.2,0.4c-0.1,0.1-0.1,0.2-0.2,0.4c-0.1,0.1-0.1,0.3-0.2,0.4c-0.1,0.1-0.1,0.2-0.2,0.4
		c-0.1,0.1-0.1,0.3-0.2,0.4c-0.1,0.1-0.1,0.2-0.2,0.4c-0.1,0.1-0.1,0.3-0.2,0.4c-0.1,0.1-0.1,0.2-0.2,0.3c-0.1,0.1-0.1,0.3-0.2,0.4
		c-0.1,0.1-0.1,0.2-0.2,0.3c-0.1,0.1-0.2,0.3-0.2,0.4c-0.1,0.1-0.1,0.2-0.2,0.3c-0.1,0.1-0.2,0.3-0.2,0.4c-0.1,0.1-0.1,0.2-0.2,0.3
		c-0.1,0.1-0.2,0.3-0.3,0.4c0,0-0.1,0.1-0.1,0.1c6.9,6.4,13.5,13.1,19.8,20.2c1.8,2,3.5,4,5.2,6l3.1,3.8
		c6.6,8.1,12.8,16.4,18.8,24.9c-4.4-16.3-9.5-51,17.5-71.9c5.3-4.1,9.5-5.9,12.7-5.8c0,0,0,0,0,0c0.3,0,0.6,0,0.9,0.1c0,0,0,0,0.1,0
		c0.3,0,0.5,0.1,0.8,0.2c0,0,0,0,0,0c0.5,0.1,1,0.3,1.5,0.6c0,0,0,0,0,0c0.2,0.1,0.5,0.3,0.7,0.4c0,0,0,0,0,0
		c0.2,0.2,0.4,0.3,0.6,0.5c0,0,0,0,0,0c0.6,0.6,1.1,1.2,1.6,2c0,0,0,0,0,0c0.1,0.3,0.3,0.5,0.4,0.8c0,0,0,0,0,0
		c0.4,0.9,0.7,1.8,1,2.9c0,0,0,0,0,0.1c0.1,0.3,0.2,0.7,0.2,1c0,0,0,0,0,0.1c0.2,1.1,0.4,2.3,0.5,3.6c0,0,0,0.1,0,0.1
		c0,0.4,0,0.8,0.1,1.3c0,0,0,0.1,0,0.1c0,0.4,0,0.9,0,1.3c0,0,0,0,0,0c0,0.9,0,1.9-0.1,2.8c0,0,0,0.1,0,0.1c0,0.5-0.1,0.9-0.1,1.4
		c0,0,0,0.1,0,0.1c0,0.5-0.1,1-0.1,1.5c0,0,0,0.1,0,0.1c-0.1,1-0.3,2.1-0.4,3.1c0,0,0,0.1,0,0.1c-0.1,0.5-0.2,1-0.3,1.5
		c0,0.1,0,0.1,0,0.2c-0.1,0.5-0.2,1-0.3,1.5c0,0.1,0,0.1,0,0.2c-0.2,1.1-0.5,2.2-0.7,3.3c0,0,0,0.1,0,0.1c-0.1,0.5-0.3,1.1-0.4,1.6
		c0,0.1,0,0.2-0.1,0.2c-0.1,0.5-0.3,1.1-0.4,1.6c0,0.1,0,0.1-0.1,0.2c-0.2,0.6-0.3,1.1-0.5,1.7c0,0,0,0.1,0,0.1
		c-0.2,0.6-0.3,1.1-0.5,1.7c0,0,0,0.1,0,0.1c-0.2,0.6-0.4,1.1-0.5,1.7c0,0.1-0.1,0.2-0.1,0.2c-0.2,0.5-0.4,1.1-0.6,1.6
		c0,0.1-0.1,0.2-0.1,0.3c-0.2,0.6-0.4,1.1-0.6,1.7c0,0.1,0,0.1-0.1,0.2c-0.2,0.6-0.4,1.1-0.6,1.7c0,0,0,0.1,0,0.1
		c-0.2,0.6-0.4,1.1-0.7,1.7c0,0.1-0.1,0.2-0.1,0.3c-0.2,0.5-0.5,1.1-0.7,1.6c0,0.1-0.1,0.2-0.1,0.3c-0.2,0.5-0.5,1.1-0.7,1.6
		c0,0.1-0.1,0.1-0.1,0.2c-0.3,0.6-0.5,1.1-0.8,1.7c0,0,0,0,0,0c-0.3,0.6-0.5,1.1-0.8,1.7c0,0.1-0.1,0.2-0.1,0.3
		c-0.3,0.5-0.5,1.1-0.8,1.6c-0.1,0.1-0.1,0.2-0.2,0.3c-0.3,0.5-0.6,1.1-0.8,1.6c0,0.1-0.1,0.2-0.1,0.3c-0.3,0.6-0.6,1.1-0.9,1.7
		c0,0,0,0,0,0.1c-0.3,0.5-0.6,1.1-0.9,1.6c0,0.1-0.1,0.1-0.1,0.2c-0.3,0.5-0.6,1-0.9,1.6c-0.1,0.1-0.1,0.2-0.2,0.3
		c-0.3,0.5-0.6,1-1,1.5c-0.1,0.1-0.1,0.2-0.2,0.3c-0.3,0.5-0.7,1-1,1.5c0,0-0.1,0.1-0.1,0.1c-0.3,0.5-0.7,1-1,1.5
		c0,0.1-0.1,0.1-0.1,0.2c-0.3,0.5-0.7,1-1.1,1.5c-0.1,0.1-0.1,0.2-0.2,0.3c-0.4,0.5-0.7,0.9-1.1,1.4c-0.1,0.1-0.1,0.2-0.2,0.3
		c-0.4,0.5-0.7,0.9-1.1,1.4c0,0-0.1,0.1-0.1,0.1c-0.4,0.5-0.8,0.9-1.1,1.4c0,0-0.1,0.1-0.1,0.1c-0.4,0.5-0.8,0.9-1.2,1.4
		c-0.1,0.1-0.1,0.2-0.2,0.2c-0.4,0.4-0.8,0.9-1.2,1.3c-0.1,0.1-0.1,0.2-0.2,0.2c-0.4,0.4-0.8,0.8-1.2,1.3c-0.1,0.1-0.1,0.1-0.2,0.2
		c-0.4,0.4-0.8,0.8-1.3,1.2c0,0,0,0-0.1,0.1c-0.4,0.4-0.9,0.8-1.3,1.2c-0.1,0.1-0.1,0.1-0.2,0.2c-0.4,0.4-0.8,0.7-1.3,1.1
		c-0.1,0.1-0.2,0.1-0.2,0.2c-0.2,0.2-0.5,0.4-0.7,0.6c8.8,12.9,17.3,26,25.9,39l4.1,6.1c4.8,7.2,9.7,14.3,14.8,21.2
		c2.3-17.2,10.5-70.1,27.2-78.2c5.1-2.5,9.6-1.8,13.1,1.1c0,0,0.1,0.1,0.1,0.1c0.6,0.5,1.2,1.1,1.7,1.7c0,0,0.1,0.1,0.1,0.1
		c0.5,0.6,1.1,1.3,1.5,2c0,0.1,0.1,0.1,0.1,0.2c0.2,0.4,0.5,0.8,0.7,1.2c0,0,0,0,0,0c0.2,0.4,0.4,0.8,0.6,1.2c0,0.1,0.1,0.1,0.1,0.2
		c0.2,0.4,0.4,0.9,0.6,1.3c0,0,0,0.1,0,0.1c0.2,0.4,0.3,0.8,0.5,1.3c0,0.1,0,0.1,0.1,0.2c0.2,0.5,0.3,0.9,0.5,1.4
		c0,0.1,0,0.1,0.1,0.2c0.1,0.4,0.3,0.9,0.4,1.4c0,0.1,0,0.1,0,0.2c0.1,0.5,0.2,1,0.4,1.5c0,0.1,0,0.2,0.1,0.3c0.1,0.5,0.2,1,0.3,1.4
		c0,0,0,0.1,0,0.1c0.1,0.5,0.2,1.1,0.2,1.6c0,0.1,0,0.2,0,0.3c0.1,0.5,0.1,1,0.2,1.6c0,0,0,0.1,0,0.1c0,0.5,0.1,1.1,0.1,1.7
		c0,0.1,0,0.2,0,0.3c0,1.1,0.1,2.2,0,3.4c0,0.1,0,0.2,0,0.4c0,0.6-0.1,1.1-0.1,1.7c0,0,0,0.1,0,0.1c0,0.5-0.1,1.1-0.2,1.6
		c0,0.1,0,0.3,0,0.4c-0.1,0.6-0.1,1.1-0.2,1.7c0,0.1,0,0.1,0,0.2c-0.1,0.5-0.2,1-0.3,1.5c0,0.1,0,0.2-0.1,0.4
		c-0.1,0.6-0.2,1.1-0.4,1.7c0,0.1,0,0.2-0.1,0.3c-0.1,0.5-0.2,1-0.4,1.5c0,0.1-0.1,0.2-0.1,0.3c-0.2,0.6-0.3,1.1-0.5,1.7
		c0,0.1-0.1,0.2-0.1,0.3c-0.2,0.5-0.3,1-0.5,1.4c0,0.1-0.1,0.2-0.1,0.3c-0.2,0.5-0.4,1.1-0.7,1.6c-0.1,0.1-0.1,0.2-0.2,0.4
		c-0.2,0.5-0.4,1-0.7,1.4c0,0.1-0.1,0.2-0.1,0.2c-0.3,0.5-0.5,1-0.8,1.6c-0.1,0.1-0.1,0.2-0.2,0.4c-0.3,0.5-0.5,1-0.8,1.4
		c0,0-0.1,0.1-0.1,0.1c-0.3,0.5-0.6,1-1,1.5c-0.1,0.1-0.2,0.2-0.2,0.4c-0.3,0.5-0.7,1-1.1,1.5l0,0l0,0
		c-11.3,14.5-23.5,22.9-31.6,27.4c-2.2,1.2-4.1,2.1-5.5,2.8c8.5,11.3,17.5,22.3,27.5,32.5l0,0l0.2,0.2c0.1,0.1,0.3,0.3,0.4,0.4
		c0,0,0,0,0,0l3.3,3.3c0,0,0,0,0,0c0.2,0.2,0.5,0.5,0.7,0.7l0.1,0.1l0,0c2.2,2.2,4.5,4.3,6.9,6.4c28.1,25,61.7,43.6,97.6,54.2
		c3.5,1,1.5,6.1-2,5.1c-31.8-9.4-61.8-25-87.9-45.6c-6-4.8-11.7-9.8-17.2-15l-4.3-4.2c-10.7-10.8-20.5-22.4-29.7-34.5
		c-0.3,0.4-0.6,0.8-0.9,1.2c-0.1,0.1-0.1,0.2-0.2,0.3c-0.4,0.5-0.8,1-1.2,1.5c0,0-0.1,0.1-0.1,0.1c-0.4,0.5-0.8,0.9-1.2,1.4
		c-0.1,0.1-0.1,0.1-0.2,0.2c-0.4,0.5-0.8,0.9-1.2,1.4c-0.1,0.1-0.2,0.2-0.3,0.3c-0.4,0.4-0.8,0.9-1.3,1.3c-0.1,0.1-0.1,0.1-0.2,0.2
		c-0.4,0.4-0.8,0.8-1.3,1.2c0,0-0.1,0.1-0.1,0.1c-0.4,0.4-0.9,0.8-1.4,1.2c-0.1,0.1-0.2,0.2-0.3,0.2c-0.4,0.4-0.9,0.7-1.4,1.1
		c-0.1,0.1-0.2,0.1-0.3,0.2c-0.5,0.4-0.9,0.7-1.4,1.1c0,0,0,0,0,0c-0.5,0.3-1,0.7-1.5,1c-0.1,0.1-0.2,0.1-0.3,0.2
		c-0.5,0.3-0.9,0.6-1.4,0.9c-0.1,0.1-0.2,0.1-0.3,0.2c-0.5,0.3-1,0.6-1.5,0.9c0,0-0.1,0.1-0.2,0.1c-0.5,0.3-0.9,0.5-1.4,0.8
		c-0.1,0-0.2,0.1-0.2,0.1c-0.5,0.3-1,0.5-1.5,0.7c-0.1,0-0.2,0.1-0.3,0.1c-0.5,0.2-1,0.5-1.5,0.7c-0.1,0-0.2,0.1-0.2,0.1
		c-0.5,0.2-1,0.4-1.4,0.6c-0.1,0-0.1,0-0.2,0.1c-0.5,0.2-1,0.4-1.5,0.6c-0.1,0-0.2,0.1-0.3,0.1c-0.5,0.2-1,0.3-1.5,0.5
		c-0.1,0-0.2,0.1-0.3,0.1c-0.5,0.2-1,0.3-1.5,0.5c0,0,0,0-0.1,0c-0.5,0.1-1,0.3-1.6,0.4c-0.1,0-0.2,0.1-0.3,0.1
		c-0.5,0.1-1,0.2-1.5,0.4c-0.1,0-0.2,0-0.3,0.1c-0.5,0.1-1,0.2-1.5,0.3c-0.1,0-0.1,0-0.2,0c-0.5,0.1-1,0.2-1.5,0.3
		c-0.1,0-0.2,0-0.3,0c-0.5,0.1-1,0.1-1.5,0.2C592.4,884.5,592.3,884.5,592.2,884.5z"/>
	<path class="st12" d="M1075.3,1044V792c-20.7,2.4-40.4,6-58.4,10.8C813.2,857.2,680.7,944.7,606.2,1044H1075.3z"/>
</g>
</svg>
