<svg xmlns="http://www.w3.org/2000/svg" viewBox="0 0 70.06 66.98"><g id="Capa_2" data-name="Capa 2"><g id="Capa_1-2" data-name="Capa 1"><path d="M65,44.62A1.15,1.15,0,0,1,64,43.88L56.24,23.81a3.5,3.5,0,0,0-5.88-1.08L43.75,30.1a1.17,1.17,0,0,1-.82.38,1.14,1.14,0,0,1-.83-.32L35,23.29,28,30.16a1.11,1.11,0,0,1-.83.32,1.13,1.13,0,0,1-.81-.38l-6.61-7.37a3.51,3.51,0,0,0-5.89,1.08L6.13,43.88A1.14,1.14,0,1,1,4,43.06L11.69,23a5.79,5.79,0,0,1,9.72-1.79l5.81,6.49,7-6.81a1.15,1.15,0,0,1,1.6,0l7,6.81,5.81-6.49A5.79,5.79,0,0,1,58.37,23l7.74,20.07a1.15,1.15,0,0,1-.66,1.48A1.24,1.24,0,0,1,65,44.62Z" style="fill:#fff"/><path d="M48.74,24a1.13,1.13,0,0,1-1-.61L37.26,3.63a2.53,2.53,0,0,0-4.46,0L22.34,23.36a1.15,1.15,0,0,1-2-1.07L30.78,2.56a4.81,4.81,0,0,1,8.5,0L49.75,22.29a1.16,1.16,0,0,1-1,1.68Z" style="fill:#fff"/><path d="M16.69,44.65a7.27,7.27,0,0,1-7.26-7.26,1.14,1.14,0,1,1,2.28,0,5,5,0,0,0,10,0,1.14,1.14,0,1,1,2.28,0A7.26,7.26,0,0,1,16.69,44.65Z" style="fill:#95bcf4"/><path d="M4.46,44.65A7.32,7.32,0,0,1,.52,43.49a1.15,1.15,0,1,1,1.25-1.92,5,5,0,0,0,7.66-4.18,1.14,1.14,0,1,1,2.28,0A7.26,7.26,0,0,1,4.46,44.65Z" style="fill:#95bcf4"/><path d="M65.6,44.65a7.26,7.26,0,0,1-7.25-7.26,1.14,1.14,0,1,1,2.28,0,5,5,0,0,0,5,5,5.06,5.06,0,0,0,2.7-.79,1.14,1.14,0,1,1,1.24,1.92A7.34,7.34,0,0,1,65.6,44.65Z" style="fill:#95bcf4"/><path d="M28.92,44.65a7.27,7.27,0,0,1-7.26-7.26,1.14,1.14,0,1,1,2.28,0,5,5,0,0,0,10,0,1.14,1.14,0,1,1,2.28,0A7.26,7.26,0,0,1,28.92,44.65Z" style="fill:#95bcf4"/><path d="M41.15,44.65a7.27,7.27,0,0,1-7.26-7.26,1.14,1.14,0,1,1,2.28,0,5,5,0,0,0,9.95,0,1.14,1.14,0,1,1,2.28,0A7.26,7.26,0,0,1,41.15,44.65Z" style="fill:#95bcf4"/><path d="M53.37,44.65a7.26,7.26,0,0,1-7.25-7.26,1.14,1.14,0,1,1,2.28,0,5,5,0,0,0,10,0,1.14,1.14,0,1,1,2.28,0A7.27,7.27,0,0,1,53.37,44.65Z" style="fill:#95bcf4"/><path d="M10.57,67A5.78,5.78,0,0,1,4.8,61.21c0-2.7,4-10.36,4.76-11.87a1.14,1.14,0,0,1,2,0c.8,1.51,4.76,9.17,4.76,11.87A5.78,5.78,0,0,1,10.57,67Zm0-14.59c-1.63,3.28-3.48,7.46-3.48,8.82a3.49,3.49,0,0,0,7,0C14.06,59.85,12.2,55.67,10.57,52.39Z" style="fill:#95bcf4"/><path d="M35,67a5.78,5.78,0,0,1-5.77-5.77c0-2.7,4-10.36,4.76-11.87a1.14,1.14,0,0,1,1-.61h0a1.12,1.12,0,0,1,1,.61c.8,1.51,4.76,9.17,4.76,11.87A5.78,5.78,0,0,1,35,67Zm0-14.59c-1.63,3.28-3.48,7.46-3.48,8.82a3.49,3.49,0,0,0,7,0C38.52,59.85,36.66,55.67,35,52.39Z" style="fill:#95bcf4"/><path d="M59.49,67a5.78,5.78,0,0,1-5.77-5.77c0-2.7,4-10.36,4.76-11.87a1.14,1.14,0,0,1,1-.61h0a1.14,1.14,0,0,1,1,.61c.8,1.51,4.76,9.17,4.76,11.87A5.78,5.78,0,0,1,59.49,67Zm0-14.59C57.86,55.67,56,59.85,56,61.21a3.49,3.49,0,0,0,7,0C63,59.85,61.12,55.67,59.49,52.39Z" style="fill:#95bcf4"/></g></g></svg>