<svg xmlns="http://www.w3.org/2000/svg" viewBox="0 0 60.57 63.37"><g id="Capa_2" data-name="Capa 2"><g id="Capa_1-2" data-name="Capa 1"><path d="M41.11,0a8,8,0,0,0-7.92,7.92V38.64a13.68,13.68,0,1,0,15.84,0V7.92A7.94,7.94,0,0,0,41.11,0Zm0,2.88a5,5,0,0,1,5,5V39.31a1.46,1.46,0,0,0,.68,1.22,10.81,10.81,0,1,1-11.43,0,1.45,1.45,0,0,0,.67-1.22V7.92A5,5,0,0,1,41.11,2.88Z" style="fill:#fff"/><path d="M41,7.9a1.44,1.44,0,0,0-1.29,1.46v37a3.6,3.6,0,1,0,2.88,0v-37a1.44,1.44,0,0,0-1.41-1.47Z" style="fill:#e76f51"/><path d="M6.32,4.7a1.44,1.44,0,0,0-.85,2.48l4.59,4.59a1.44,1.44,0,1,0,2.07-2s0,0,0,0L7.52,5.15A1.49,1.49,0,0,0,6.32,4.7Z" style="fill:#f4a261"/><path d="M26,6.32a1.5,1.5,0,0,0-.52.09,17.62,17.62,0,0,0,0,33.24,1.44,1.44,0,0,0,1-2.72h0a14.74,14.74,0,0,1,0-27.79A1.44,1.44,0,0,0,26,6.32Z" style="fill:#f4a261"/><path d="M1.37,21.6a1.44,1.44,0,0,0,.14,2.88H8A1.44,1.44,0,0,0,8,21.6H1.37Z" style="fill:#f4a261"/><path d="M11.05,33.87a1.39,1.39,0,0,0-1,.45L5.47,38.88a1.45,1.45,0,1,0,2,2.06h0l4.57-4.59a1.45,1.45,0,0,0,0-2A1.43,1.43,0,0,0,11.05,33.87Z" style="fill:#f4a261"/><path d="M52.5,10.08A1.44,1.44,0,0,0,52.63,13h6.48a1.44,1.44,0,1,0,0-2.88H52.5Z" style="fill:#95bcf4"/><path d="M52.5,15.84a1.44,1.44,0,0,0,.13,2.88h2.88a1.44,1.44,0,0,0,0-2.88h-3Z" style="fill:#95bcf4"/><path d="M52.5,21.6a1.44,1.44,0,0,0,.13,2.88h6.48a1.44,1.44,0,1,0,0-2.88H52.5Z" style="fill:#95bcf4"/><path d="M52.5,27.36a1.44,1.44,0,0,0,.13,2.88h2.88a1.44,1.44,0,1,0,0-2.88h-3Z" style="fill:#95bcf4"/><path d="M52.5,33.12a1.44,1.44,0,0,0-1.37,1.51A1.43,1.43,0,0,0,52.63,36h6.48a1.44,1.44,0,0,0,0-2.88H52.5Z" style="fill:#95bcf4"/></g></g></svg>