<svg xmlns="http://www.w3.org/2000/svg" viewBox="0 0 102.52 67.21"><g id="Capa_2" data-name="Capa 2"><g id="Capa_1-2" data-name="Capa 1"><path d="M101,48.15a21.17,21.17,0,0,0-8.84,1.71,18.46,18.46,0,0,1-7.75,1.5,18.48,18.48,0,0,1-7.76-1.5,21.17,21.17,0,0,0-8.84-1.71A21.07,21.07,0,0,0,59,49.86a18.46,18.46,0,0,1-7.75,1.5,18.43,18.43,0,0,1-7.75-1.5,21.17,21.17,0,0,0-8.84-1.71,21.11,21.11,0,0,0-8.83,1.71,18.46,18.46,0,0,1-7.75,1.5,18.46,18.46,0,0,1-7.75-1.5A21.07,21.07,0,0,0,1.5,48.15a1.51,1.51,0,0,0,0,3,18.43,18.43,0,0,1,7.75,1.5,21.07,21.07,0,0,0,8.83,1.71,21.07,21.07,0,0,0,8.83-1.71,18.46,18.46,0,0,1,7.75-1.5,18.43,18.43,0,0,1,7.75,1.5,21.17,21.17,0,0,0,8.84,1.71,21.07,21.07,0,0,0,8.83-1.71,18.46,18.46,0,0,1,7.75-1.5,18.48,18.48,0,0,1,7.76,1.5,21.13,21.13,0,0,0,8.84,1.71,21.11,21.11,0,0,0,8.83-1.71,18.48,18.48,0,0,1,7.76-1.5,1.51,1.51,0,0,0,0-3Z" style="fill:#95bcf4"/><path d="M94.39,57a1.5,1.5,0,0,0-1.94-.87l-.27.11a23.67,23.67,0,0,1-2.77.94,1.5,1.5,0,0,0,.37,3,1.65,1.65,0,0,0,.38,0,26.65,26.65,0,0,0,3.1-1.05l.27-.1A1.5,1.5,0,0,0,94.39,57Z" style="fill:#95bcf4"/><path d="M83.42,57.77a18,18,0,0,1-6.75-1.49,21.17,21.17,0,0,0-8.84-1.71A21.07,21.07,0,0,0,59,56.28a18.46,18.46,0,0,1-7.75,1.5,18.43,18.43,0,0,1-7.75-1.5,21.17,21.17,0,0,0-8.84-1.71,21.11,21.11,0,0,0-8.83,1.71,18.21,18.21,0,0,1-6.73,1.49,1.5,1.5,0,0,0,.11,3,20.94,20.94,0,0,0,7.7-1.69,18.46,18.46,0,0,1,7.75-1.5,18.39,18.39,0,0,1,7.75,1.5,21.17,21.17,0,0,0,8.84,1.71,21.07,21.07,0,0,0,8.83-1.71,18.46,18.46,0,0,1,7.75-1.5,18.48,18.48,0,0,1,7.76,1.5,21,21,0,0,0,7.72,1.69,1.5,1.5,0,0,0,.11-3Z" style="fill:#95bcf4"/><path d="M67.83,61A21.07,21.07,0,0,0,59,62.7a18.46,18.46,0,0,1-7.75,1.5,18.43,18.43,0,0,1-7.75-1.5A21.17,21.17,0,0,0,34.66,61a1.51,1.51,0,0,0,0,3,18.43,18.43,0,0,1,7.75,1.5,21.17,21.17,0,0,0,8.84,1.71,21.07,21.07,0,0,0,8.83-1.71A18.46,18.46,0,0,1,67.83,64a1.51,1.51,0,0,0,0-3Z" style="fill:#95bcf4"/><path d="M13.12,57.23a26.05,26.05,0,0,1-2.79-.95,1.5,1.5,0,1,0-1.08,2.8,26.14,26.14,0,0,0,3.11,1.06,1.69,1.69,0,0,0,.38,0,1.48,1.48,0,0,0,1.45-1.12A1.5,1.5,0,0,0,13.12,57.23Z" style="fill:#95bcf4"/><path d="M74.87,44.63a1.51,1.51,0,0,1-1.51-1.5,22.1,22.1,0,0,0-44.2,0,1.51,1.51,0,0,1-3,0,25.11,25.11,0,0,1,50.22,0A1.5,1.5,0,0,1,74.87,44.63Z" style="fill:#f4a261"/><path d="M20.76,40.13H11.13a1.5,1.5,0,0,0,0,3h9.63a1.5,1.5,0,0,0,0-3Z" style="fill:#e9c46a"/><path d="M51.26,0a1.5,1.5,0,0,0-1.5,1.5v9.63a1.5,1.5,0,1,0,3,0V1.5A1.5,1.5,0,0,0,51.26,0Z" style="fill:#e9c46a"/><path d="M80.7,12.19a1.52,1.52,0,0,0-2.13,0L71.76,19a1.51,1.51,0,0,0,2.13,2.13l6.81-6.81A1.52,1.52,0,0,0,80.7,12.19Z" style="fill:#e9c46a"/><path d="M41,12.88l-1.23-3A1.5,1.5,0,0,0,37,11.06l1.23,3a1.5,1.5,0,0,0,1.39.93,1.42,1.42,0,0,0,.57-.12A1.51,1.51,0,0,0,41,12.88Z" style="fill:#e9c46a"/><path d="M83.79,28.16a1.51,1.51,0,0,0-2-.82l-3,1.23a1.5,1.5,0,0,0,.58,2.89,1.65,1.65,0,0,0,.57-.11l3-1.23A1.5,1.5,0,0,0,83.79,28.16Z" style="fill:#e9c46a"/><path d="M64.73,9.1a1.5,1.5,0,0,0-2,.81l-1.23,3a1.51,1.51,0,0,0,.82,2,1.42,1.42,0,0,0,.57.12A1.5,1.5,0,0,0,64.32,14l1.23-3A1.51,1.51,0,0,0,64.73,9.1Z" style="fill:#e9c46a"/><path d="M23.66,28.57l-3-1.23a1.5,1.5,0,0,0-1.15,2.78l3,1.23a1.65,1.65,0,0,0,.57.11,1.5,1.5,0,0,0,.58-2.89Z" style="fill:#e9c46a"/><path d="M21.82,14.32l6.81,6.81A1.51,1.51,0,0,0,30.76,19L24,12.19a1.51,1.51,0,1,0-2.13,2.13Z" style="fill:#e9c46a"/><path d="M80.26,41.63a1.5,1.5,0,0,0,1.5,1.5h9.63a1.5,1.5,0,0,0,0-3H81.76A1.5,1.5,0,0,0,80.26,41.63Z" style="fill:#e9c46a"/></g></g></svg>