<svg xmlns="http://www.w3.org/2000/svg" viewBox="0 0 292.4 9">
  <g>
    <polyline style="fill:none;stroke:#f4a261;stroke-linecap:round;stroke-linejoin:round;stroke-width:3px" points="290.9 7.5 281.86 1.5 272.83 7.5 263.79 1.5 254.75 7.5 245.71 1.5 236.68 7.5 227.64 1.5 218.59 7.5 209.55 1.5 200.51 7.5 191.47 1.5 182.43 7.5 173.39 1.5 164.34 7.5 155.3 1.5 146.26 7.5 137.22 1.5 128.16 7.5 119.12 1.5 110.08 7.5 101.04 1.5 91.98 7.5 82.95 1.5 73.89 7.5 64.85 1.5 55.81 7.5 46.77 1.5 37.71 7.5 28.67 1.5 19.61 7.5 10.56 1.5 1.5 7.5"/>
  </g>
</svg>