<svg xmlns="http://www.w3.org/2000/svg" viewBox="0 0 291.2 7.6">
  <g>
    <path style="fill:none;stroke:#e9c46a;stroke-linecap:round;stroke-miterlimit:10;stroke-width:3px" d="M1.5,6.1c5.1,0,5.1-4.6,10.3-4.6S16.9,6.1,22,6.1s5.1-4.6,10.3-4.6,5.1,4.6,10.3,4.6,5.1-4.6,10.3-4.6S58,6.1,63.2,6.1s5.1-4.6,10.3-4.6,5.2,4.6,10.3,4.6,5.1-4.6,10.3-4.6,5.1,4.6,10.3,4.6,5.1-4.6,10.3-4.6,5.1,4.6,10.3,4.6,5.1-4.6,10.3-4.6,5.1,4.6,10.3,4.6,5.1-4.6,10.3-4.6,5.1,4.6,10.3,4.6,5.1-4.6,10.3-4.6,5.1,4.6,10.3,4.6,5.1-4.6,10.3-4.6,5.1,4.6,10.3,4.6,5.1-4.6,10.2-4.6,5.1,4.6,10.3,4.6,5.1-4.6,10.3-4.6,5.1,4.6,10.3,4.6,5.2-4.6,10.3-4.6,5.1,4.6,10.3,4.6,5.1-4.6,10.3-4.6,5.1,4.6,10.3,4.6"/>
  </g>
</svg>