<svg xmlns="http://www.w3.org/2000/svg" viewBox="0 0 290.09 9">
  <g>
    <line x1="6.56" y1="1.5" x2="1.5" y2="7.5" style="fill:none;stroke:#e76f51;stroke-linecap:round;stroke-miterlimit:10;stroke-width:3px"/>
    <line x1="19.39" y1="1.5" x2="14.33" y2="7.5" style="fill:none;stroke:#e76f51;stroke-linecap:round;stroke-miterlimit:10;stroke-width:3px"/>
    <line x1="32.22" y1="1.5" x2="27.16" y2="7.5" style="fill:none;stroke:#e76f51;stroke-linecap:round;stroke-miterlimit:10;stroke-width:3px"/>
    <line x1="45.04" y1="1.5" x2="40" y2="7.5" style="fill:none;stroke:#e76f51;stroke-linecap:round;stroke-miterlimit:10;stroke-width:3px"/>
    <line x1="57.87" y1="1.5" x2="52.81" y2="7.5" style="fill:none;stroke:#e76f51;stroke-linecap:round;stroke-miterlimit:10;stroke-width:3px"/>
    <line x1="70.7" y1="1.5" x2="65.64" y2="7.5" style="fill:none;stroke:#e76f51;stroke-linecap:round;stroke-miterlimit:10;stroke-width:3px"/>
    <line x1="83.52" y1="1.5" x2="78.48" y2="7.5" style="fill:none;stroke:#e76f51;stroke-linecap:round;stroke-miterlimit:10;stroke-width:3px"/>
    <line x1="96.35" y1="1.5" x2="91.29" y2="7.5" style="fill:none;stroke:#e76f51;stroke-linecap:round;stroke-miterlimit:10;stroke-width:3px"/>
    <line x1="109.17" y1="1.5" x2="104.12" y2="7.5" style="fill:none;stroke:#e76f51;stroke-linecap:round;stroke-miterlimit:10;stroke-width:3px"/>
    <line x1="121.98" y1="1.5" x2="116.94" y2="7.5" style="fill:none;stroke:#e76f51;stroke-linecap:round;stroke-miterlimit:10;stroke-width:3px"/>
    <line x1="134.8" y1="1.5" x2="129.76" y2="7.5" style="fill:none;stroke:#e76f51;stroke-linecap:round;stroke-miterlimit:10;stroke-width:3px"/>
    <line x1="147.62" y1="1.5" x2="142.57" y2="7.5" style="fill:none;stroke:#e76f51;stroke-linecap:round;stroke-miterlimit:10;stroke-width:3px"/>
    <line x1="160.43" y1="1.5" x2="155.39" y2="7.5" style="fill:none;stroke:#e76f51;stroke-linecap:round;stroke-miterlimit:10;stroke-width:3px"/>
    <line x1="173.23" y1="1.5" x2="168.21" y2="7.5" style="fill:none;stroke:#e76f51;stroke-linecap:round;stroke-miterlimit:10;stroke-width:3px"/>
    <line x1="186.05" y1="1.5" x2="181.01" y2="7.5" style="fill:none;stroke:#e76f51;stroke-linecap:round;stroke-miterlimit:10;stroke-width:3px"/>
    <line x1="198.85" y1="1.5" x2="193.83" y2="7.5" style="fill:none;stroke:#e76f51;stroke-linecap:round;stroke-miterlimit:10;stroke-width:3px"/>
    <line x1="186.05" y1="1.5" x2="181.01" y2="7.5" style="fill:none;stroke:#e76f51;stroke-linecap:round;stroke-miterlimit:10;stroke-width:3px"/>
    <line x1="198.88" y1="1.5" x2="193.83" y2="7.5" style="fill:none;stroke:#e76f51;stroke-linecap:round;stroke-miterlimit:10;stroke-width:3px"/>
    <line x1="211.7" y1="1.5" x2="206.66" y2="7.5" style="fill:none;stroke:#e76f51;stroke-linecap:round;stroke-miterlimit:10;stroke-width:3px"/>
    <line x1="224.52" y1="1.5" x2="219.47" y2="7.5" style="fill:none;stroke:#e76f51;stroke-linecap:round;stroke-miterlimit:10;stroke-width:3px"/>
    <line x1="237.33" y1="1.5" x2="232.29" y2="7.5" style="fill:none;stroke:#e76f51;stroke-linecap:round;stroke-miterlimit:10;stroke-width:3px"/>
    <line x1="250.15" y1="1.5" x2="245.11" y2="7.5" style="fill:none;stroke:#e76f51;stroke-linecap:round;stroke-miterlimit:10;stroke-width:3px"/>
    <line x1="262.97" y1="1.5" x2="257.93" y2="7.5" style="fill:none;stroke:#e76f51;stroke-linecap:round;stroke-miterlimit:10;stroke-width:3px"/>
    <line x1="275.77" y1="1.5" x2="270.74" y2="7.5" style="fill:none;stroke:#e76f51;stroke-linecap:round;stroke-miterlimit:10;stroke-width:3px"/>
    <line x1="288.59" y1="1.5" x2="283.54" y2="7.5" style="fill:none;stroke:#e76f51;stroke-linecap:round;stroke-miterlimit:10;stroke-width:3px"/>
  </g>
</svg>