<svg xmlns="http://www.w3.org/2000/svg" viewBox="0 0 291.2 7.6">
  <g>
    <path style="fill:none;stroke:#2a9d8f;stroke-linecap:round;stroke-miterlimit:10;stroke-width:3px" d="M1.5,1.5c5.1,0,5.1,4.6,10.3,4.6S16.9,1.5,22,1.5s5.1,4.6,10.3,4.6,5.1-4.6,10.3-4.6,5.1,4.6,10.3,4.6S58,1.5,63.2,1.5s5.1,4.6,10.3,4.6,5.2-4.6,10.3-4.6,5.1,4.6,10.3,4.6,5.1-4.6,10.3-4.6,5.1,4.6,10.3,4.6,5.1-4.6,10.3-4.6,5.1,4.6,10.3,4.6,5.1-4.6,10.3-4.6,5.1,4.6,10.3,4.6,5.1-4.6,10.3-4.6,5.1,4.6,10.3,4.6,5.1-4.6,10.3-4.6,5.1,4.6,10.3,4.6,5.1-4.6,10.3-4.6,5.1,4.6,10.2,4.6,5.1-4.6,10.3-4.6,5.1,4.6,10.3,4.6,5.1-4.6,10.3-4.6,5.2,4.6,10.3,4.6,5.1-4.6,10.3-4.6,5.1,4.6,10.3,4.6,5.1-4.6,10.3-4.6"/>
  </g>
</svg>